<svg width="410" height="406" viewBox="0 0 410 406" fill="none" xmlns="http://www.w3.org/2000/svg">
<path d="M288.312 152.664H242.671V198.144H288.312V152.664Z" fill="#9097D5"/>
<path d="M288.32 106.607V88.6866C284.205 89.2287 280.219 90.4849 276.545 92.3975C267.96 97.0746 259.136 102.296 249.977 106.607H288.32Z" fill="#9097D5"/>
<path d="M338.266 112.291H294.06V146.972H338.266V112.291Z" fill="#9097D5"/>
<path d="M338.266 152.664H294.06V198.144H338.266V152.664Z" fill="#9097D5"/>
<path d="M288.312 112.291H242.671V146.972H288.312V112.291Z" fill="#9097D5"/>
<path d="M294.06 106.607H338.266V101.817C324.031 91.8453 307.566 87.6473 294.06 88.1588V106.607Z" fill="#9097D5"/>
<path d="M352.912 267.505C352.912 267.505 380.48 206.102 369 149.822C365.056 130.497 355.634 116.197 344.023 106.258V203.812H236.931V112.291H236.644V111.999C229.713 114.371 222.443 115.624 215.111 115.71C192.725 115.71 178.366 99.2183 133.012 83.8715C87.658 68.5247 47.4616 106.039 40.5736 149.254C33.6856 192.468 68.1338 235.098 66.9858 260.652C65.8378 286.206 57.6296 317.078 57.6296 317.078H358.078C358.078 317.078 347.163 297.07 352.912 267.505ZM159.392 167.443H99.138V95.2395H159.424L159.392 167.443ZM209.026 173.695H169.182V125.941H209.1L209.026 173.695Z" fill="#9097D5"/>
<path d="M154.193 101.492H104.353V161.19H154.193V101.492Z" fill="#9097D5"/>
<path d="M205.599 130.074H172.635V169.562H205.599V130.074Z" fill="#9097D5"/>
<g opacity="0.7">
<path opacity="0.7" d="M288.312 152.664H242.671V198.144H288.312V152.664Z" fill="white"/>
<path opacity="0.7" d="M288.32 106.607V88.6866C284.205 89.2287 280.219 90.4849 276.545 92.3975C267.96 97.0746 259.136 102.296 249.977 106.607H288.32Z" fill="white"/>
<path opacity="0.7" d="M338.266 112.291H294.06V146.972H338.266V112.291Z" fill="white"/>
<path opacity="0.7" d="M338.266 152.664H294.06V198.144H338.266V152.664Z" fill="white"/>
<path opacity="0.7" d="M288.312 112.291H242.671V146.972H288.312V112.291Z" fill="white"/>
<path opacity="0.7" d="M294.06 106.607H338.266V101.817C324.031 91.8453 307.566 87.6473 294.06 88.1588V106.607Z" fill="white"/>
<path opacity="0.7" d="M352.912 267.505C352.912 267.505 380.48 206.102 369 149.822C365.056 130.497 355.634 116.197 344.023 106.258V203.812H236.931V112.291H236.644V111.999C229.713 114.371 222.443 115.624 215.111 115.71C192.725 115.71 178.366 99.2183 133.012 83.8715C87.658 68.5247 47.4616 106.039 40.5736 149.254C33.6856 192.468 68.1338 235.098 66.9858 260.652C65.8378 286.206 57.6296 317.078 57.6296 317.078H358.078C358.078 317.078 347.163 297.07 352.912 267.505ZM159.392 167.443H99.138V95.2395H159.424L159.392 167.443ZM209.026 173.695H169.182V125.941H209.1L209.026 173.695Z" fill="white"/>
<path opacity="0.7" d="M154.193 101.492H104.353V161.19H154.193V101.492Z" fill="white"/>
<path opacity="0.7" d="M205.599 130.074H172.635V169.562H205.599V130.074Z" fill="white"/>
</g>
<path d="M214.84 320.196C307.679 320.196 382.94 318.258 382.94 315.868C382.94 313.478 307.679 311.54 214.84 311.54C122.001 311.54 46.74 313.478 46.74 315.868C46.74 318.258 122.001 320.196 214.84 320.196Z" fill="#2E353A"/>
<path d="M373.805 267.059C371.025 263.754 369.705 263.721 369.164 263.973C369.164 262.23 369.164 260.454 369.164 258.646C371.091 260.27 372.772 261.643 372.772 261.643C372.046 258.788 370.759 256.103 368.984 253.742C368.869 251.728 368.713 249.682 368.492 247.717C368.328 246.247 368.196 244.753 368.073 243.259C368.738 245.865 369.385 248.748 371.468 250.811C373.241 252.678 374.884 254.661 376.388 256.746C376.388 256.746 374.822 250.039 371.698 247.205C370.221 245.935 368.971 244.428 368 242.747C367.754 239.451 367.598 236.121 367.516 232.857C367.61 231.451 367.61 230.041 367.516 228.635L367.426 228.749C367.426 228.237 367.426 227.734 367.426 227.238C367.507 229.373 368.106 231.457 369.17 233.315C370.235 235.173 371.734 236.751 373.543 237.916C373.543 237.916 373.543 231.729 370.681 228.115C367.819 224.502 367.557 225.281 367.557 225.281C367.499 225.76 367.467 226.231 367.458 226.678C367.458 222.098 367.565 217.819 367.721 214.141C367.86 215.581 368.431 216.947 369.361 218.063C371.968 220.896 374.568 220.896 374.568 220.896C374.568 220.896 373.526 214.969 371.706 213.158C370.538 212.03 369.264 211.016 367.901 210.129C368.172 205.257 368.459 202.131 368.467 202.009C368.473 201.96 368.468 201.909 368.454 201.861C368.439 201.813 368.416 201.769 368.383 201.73C368.351 201.691 368.312 201.66 368.267 201.636C368.222 201.613 368.173 201.599 368.123 201.595C368.022 201.588 367.923 201.62 367.845 201.683C367.767 201.747 367.717 201.837 367.704 201.936C367.704 202.099 366.72 212.492 366.671 225.484C366.335 223.373 365.752 221.307 364.933 219.329C363.375 216.227 360.767 216.487 360.767 216.487C360.659 216.467 360.549 216.453 360.439 216.447C360.128 209.334 359.988 202.886 359.947 197.551C361.095 200.929 366.237 207.718 366.237 207.718C366.237 207.718 366.237 198.177 364.154 196.886C363.518 196.529 362.812 196.314 362.084 196.256C361.356 196.199 360.623 196.3 359.939 196.553C359.939 194.303 359.939 192.265 359.939 190.479L360.259 190.438L359.939 190.227C359.939 185.201 360.078 182.213 360.078 182.107C360.081 182.058 360.073 182.008 360.055 181.961C360.038 181.915 360.011 181.872 359.977 181.835C359.942 181.799 359.901 181.77 359.855 181.75C359.809 181.729 359.76 181.719 359.709 181.717C359.659 181.715 359.608 181.723 359.561 181.74C359.513 181.757 359.469 181.784 359.432 181.818C359.395 181.852 359.364 181.893 359.343 181.938C359.322 181.984 359.31 182.033 359.308 182.083C359.308 182.164 359.209 184.982 359.176 189.74C358.078 189.131 356.356 188.392 355.076 188.879C352.994 189.691 351.69 198.42 351.69 198.42C351.69 198.42 355.199 191.924 359.201 190.633C359.201 195.773 359.201 202.935 359.513 211.274C358.586 211.152 355.331 210.885 353.773 212.898C351.944 215.212 349.345 223.211 349.345 223.211L359.513 211.623C359.567 213.247 359.633 214.915 359.709 216.625C359.488 216.869 359.578 217.34 359.767 217.892C360.029 223.292 360.382 229.057 360.882 234.944C359.404 236.576 358.071 238.331 356.897 240.19C354.027 244.574 353.773 251.282 353.773 251.282C353.773 251.282 360.218 244.639 361.489 241.692C362.005 247.644 362.399 253.23 362.694 258.338C362.001 260.095 361.008 261.721 359.759 263.145C357.151 266.239 357.151 273.205 357.151 273.205C357.151 273.205 362.071 270.932 362.965 263.405C363.736 279.425 363.539 289.608 363.531 289.754C363.53 289.804 363.538 289.854 363.557 289.901C363.575 289.947 363.603 289.99 363.638 290.026C363.673 290.063 363.715 290.092 363.761 290.112C363.807 290.132 363.857 290.143 363.908 290.144C363.958 290.145 364.008 290.136 364.055 290.118C364.101 290.099 364.144 290.072 364.18 290.037C364.216 290.003 364.244 289.961 364.264 289.915C364.283 289.869 364.293 289.82 364.293 289.77C364.293 289.592 364.613 273.701 362.94 250.34C363.02 251.288 363.261 252.216 363.654 253.084C364.162 254.083 366.302 256.097 368.377 257.916C368.434 260.132 368.434 262.317 368.377 264.452C367.391 265.323 366.732 266.5 366.507 267.789C365.912 270.6 365.476 273.441 365.203 276.299C366.608 274.851 367.613 273.07 368.123 271.127C367.749 277.968 366.988 284.784 365.843 291.54C365.826 291.64 365.849 291.743 365.907 291.826C365.966 291.91 366.054 291.967 366.155 291.987H366.228C366.319 291.986 366.406 291.954 366.475 291.897C366.544 291.839 366.59 291.759 366.606 291.67C368.102 282.756 368.952 273.747 369.148 264.712C369.631 265.524 370.673 267.254 371.985 269.105C373.805 271.687 378.233 275.552 378.233 275.552C378.233 275.552 377.717 271.703 373.805 267.059ZM367.032 251.842C362.866 248.748 362.866 247.717 362.866 247.717C362.84 248.223 362.84 248.729 362.866 249.235C362.629 245.987 362.35 242.609 362.046 239.118C362.106 237.553 361.968 235.988 361.636 234.457C361.251 229.812 360.956 225.289 360.718 220.953C361.538 222.853 365.089 227.669 366.745 229.885V229.975C365.876 231.607 365.197 233.331 364.72 235.115C363.921 237.757 364.107 240.595 365.244 243.113C366.001 241.247 366.575 239.314 366.958 237.339C367.122 240.847 367.376 244.388 367.778 247.831C367.959 249.503 368.101 251.179 368.205 252.857C367.839 252.491 367.447 252.151 367.032 251.842Z" fill="#2E353A"/>
<path d="M372.075 317.435H358.34L355.404 286.831H375.019L372.075 317.435Z" fill="#2E353A"/>
<path d="M247.722 210.47V240.035H213.2C211.362 240.034 209.542 240.392 207.844 241.087C206.146 241.783 204.603 242.803 203.303 244.09C202.003 245.376 200.972 246.904 200.268 248.585C199.565 250.266 199.203 252.068 199.203 253.888C199.203 257.564 200.677 261.09 203.302 263.689C205.927 266.289 209.488 267.749 213.2 267.749C214.013 267.749 214.793 268.069 215.369 268.638C215.944 269.208 216.267 269.98 216.267 270.786V317.07H282.08V210.47C282.08 205.976 280.288 201.663 277.095 198.47C273.901 195.277 269.563 193.461 265.024 193.418C262.756 193.408 260.508 193.841 258.409 194.693C256.31 195.545 254.402 196.8 252.795 198.384C251.187 199.969 249.911 201.852 249.041 203.926C248.17 206 247.722 208.224 247.722 210.47Z" fill="#9097D5" stroke="#2E353A" stroke-miterlimit="10"/>
<path d="M258.653 210.47V240.035H224.131C222.293 240.034 220.473 240.392 218.775 241.087C217.076 241.783 215.533 242.803 214.233 244.09C212.934 245.376 211.902 246.904 211.199 248.585C210.495 250.266 210.133 252.068 210.133 253.888C210.133 257.564 211.608 261.09 214.233 263.689C216.858 266.289 220.418 267.749 224.131 267.749C224.944 267.749 225.724 268.069 226.299 268.638C226.874 269.208 227.197 269.98 227.197 270.786V317.07H293.035V210.47C293.035 205.976 291.244 201.663 288.05 198.47C284.856 195.277 280.518 193.461 275.979 193.418C273.709 193.404 271.458 193.835 269.357 194.686C267.255 195.537 265.344 196.791 263.734 198.375C262.123 199.96 260.846 201.845 259.973 203.92C259.101 205.996 258.653 208.222 258.653 210.47Z" fill="#9097D5" stroke="#2E353A" stroke-miterlimit="10"/>
<path d="M267.73 259.84L254.2 262.276C254.2 262.276 253.79 269.178 251.33 273.644C249.641 276.446 247.038 278.595 243.95 279.734L240.67 294.756C240.67 294.756 248.46 312.62 248.46 314.65C248.46 316.68 245.59 317.086 245.59 317.086H229.19V254.968H269.78L267.73 259.84Z" fill="#2E353A"/>
<path d="M253.052 248.537V209.796C253.052 200.694 260.768 193.313 270.272 193.313H341.612C351.124 193.313 358.832 200.694 358.832 209.796V255.082H268.361L253.052 248.537Z" fill="#9097D5" stroke="#2E353A" stroke-miterlimit="10"/>
<path d="M312.199 193.305L310.69 199.557L319.8 202.31C319.8 202.31 323.564 203.65 325.105 207.06C326.647 210.47 327.631 217.811 327.631 217.811L327.885 224.81V238.728H298.365L302.4 200.077L306.188 193.581L312.199 193.305Z" fill="#2E353A"/>
<path d="M287.976 278.305C276.207 279.45 264.385 279.979 252.56 279.888C234.7 279.628 224.04 277.777 224.04 277.777" stroke="#2E353A" stroke-miterlimit="10"/>
<path d="M284.105 201.295C284.105 201.295 251.519 218.72 249.92 220.864C248.321 223.008 247.32 227.36 252.921 227.79C258.521 228.221 279.71 220.271 279.71 220.271L284.105 201.295Z" fill="white"/>
<path d="M281.309 208.684L278.415 213.727L275.61 208.725L277.086 215.838L275.003 215.765L275.905 217.941L257.956 224.762C257.956 224.762 263.843 225.436 268.329 223.787C272.814 222.139 276.84 221.075 276.84 221.075L281.309 208.684Z" fill="#9097D5"/>
<g style="mix-blend-mode:multiply" opacity="0.3">
<path d="M281.309 208.684L278.415 213.727L275.61 208.725L277.086 215.838L275.003 215.765L275.905 217.941L257.956 224.762C257.956 224.762 263.843 225.436 268.329 223.787C272.814 222.139 276.84 221.075 276.84 221.075L281.309 208.684Z" fill="#D9DCF2"/>
</g>
<path d="M284.105 201.295C284.105 201.295 251.519 218.72 249.92 220.864C248.321 223.008 247.32 227.36 252.921 227.79C258.521 228.221 279.71 220.271 279.71 220.271L284.105 201.295Z" stroke="#2E353A" stroke-linecap="round" stroke-linejoin="round"/>
<path d="M274.987 184.121C276.58 183.498 278.064 182.63 279.382 181.547C280.784 180.158 281.383 181.352 281.383 182.14C281.383 182.927 281.785 184.917 279.784 185.704C277.783 186.492 274.987 186.102 274.987 184.121Z" fill="white" stroke="#2E353A" stroke-linecap="round" stroke-linejoin="round"/>
<path d="M270.452 186.013C271.333 185.244 272.289 184.564 273.306 183.983C274.126 183.691 279.095 182.278 280.202 182.781C281.309 183.285 282.777 185.485 283.228 186.362C283.679 187.239 283.376 188.514 282.408 188.465C281.44 188.416 278.972 185.558 278.972 185.558L274.872 186.906C274.872 186.906 273.175 187.653 272.347 187.174C271.518 186.695 270.674 186.971 270.452 186.013Z" fill="white" stroke="#2E353A" stroke-linecap="round" stroke-linejoin="round"/>
<path d="M270.69 184.665C270.69 184.665 272.56 183.967 273.101 184.381C274.114 185.025 275.22 185.512 276.381 185.826C278.095 186.37 280.005 186.995 280.415 188.262C280.825 189.529 278.775 191.453 278.775 191.453C276.965 190.221 275.087 189.087 273.15 188.059C271.42 187.198 268.616 185.258 270.69 184.665Z" fill="white" stroke="#2E353A" stroke-linecap="round" stroke-linejoin="round"/>
<path d="M273.962 186.833L272.158 185.534C272.158 185.534 270.518 184.267 269.698 185.258C269.698 185.258 267.099 194.961 266.697 196.147C266.295 197.332 247.123 215.18 246.123 219.11C245.739 220.684 245.981 222.343 246.799 223.745C247.618 225.146 248.949 226.182 250.518 226.637C252.921 227.23 256.119 220.896 257.513 217.705C258.907 214.514 269.911 197.909 269.911 197.909C270.561 198.122 271.263 198.122 271.912 197.909C272.678 197.355 273.353 196.686 273.913 195.927L275.914 195.115C276.906 194.726 279.308 190.763 279.505 190.17C279.515 190.111 279.515 190.051 279.505 189.992C278.128 188.213 273.962 186.833 273.962 186.833Z" fill="white"/>
<g style="mix-blend-mode:multiply">
<path d="M248.944 225.939C249.428 226.252 249.96 226.488 250.518 226.637C252.921 227.23 256.119 220.896 257.513 217.705C258.907 214.514 269.911 197.909 269.911 197.909C269.911 197.909 249.362 220.645 248.772 223.893C248.648 224.578 248.707 225.283 248.944 225.939Z" fill="#9097D5"/>
</g>
<g style="mix-blend-mode:multiply" opacity="0.3">
<path d="M248.944 225.939C249.428 226.252 249.96 226.488 250.518 226.637C252.921 227.23 256.119 220.896 257.513 217.705C258.907 214.514 269.911 197.909 269.911 197.909C269.911 197.909 249.362 220.645 248.772 223.893C248.648 224.578 248.707 225.283 248.944 225.939Z" fill="#D9DCF2"/>
</g>
<path d="M273.962 186.833L272.158 185.534C272.158 185.534 270.518 184.267 269.698 185.258C269.698 185.258 267.099 194.961 266.697 196.147C266.295 197.332 247.123 215.18 246.123 219.11C245.739 220.684 245.981 222.343 246.799 223.745C247.618 225.146 248.949 226.182 250.518 226.637C252.921 227.23 256.119 220.896 257.513 217.705C258.907 214.514 269.911 197.909 269.911 197.909C270.561 198.122 271.263 198.122 271.912 197.909C272.678 197.355 273.353 196.686 273.913 195.927L275.914 195.115C276.906 194.726 279.308 190.763 279.505 190.17C279.515 190.111 279.515 190.051 279.505 189.992C278.128 188.213 273.962 186.833 273.962 186.833Z" stroke="#2E353A" stroke-linecap="round" stroke-linejoin="round"/>
<path d="M272.125 192.964C273.004 193.284 273.917 193.5 274.848 193.605" stroke="#2E353A" stroke-linecap="round" stroke-linejoin="round"/>
<path d="M273.552 193.735C273.552 193.735 271.912 195.854 273.913 195.952" stroke="#2E353A" stroke-linecap="round" stroke-linejoin="round"/>
<path d="M271.133 188.506C271.133 188.506 275.627 190.649 276.406 191.421C276.745 191.69 276.992 192.058 277.109 192.474C277.227 192.889 277.21 193.33 277.062 193.735" stroke="#2E353A" stroke-linecap="round" stroke-linejoin="round"/>
<path d="M284.302 187.572C284.302 187.572 283.318 189.196 283.81 189.651C284.302 190.105 285.778 190.382 285.901 189.285C286.024 188.189 285.778 187.198 284.302 187.572Z" fill="white" stroke="#2E353A" stroke-linecap="round" stroke-linejoin="round"/>
<path d="M237.587 303.997C237.587 303.997 242.392 310.858 242.392 312.449C242.392 314.041 234.126 316.144 230.658 316.404C227.189 316.664 218.932 317.46 215.463 316.932C211.995 316.404 215.463 315.088 218.932 312.709C222.4 310.33 225.598 309.543 226.394 306.904L237.587 303.997Z" fill="#2E353A" stroke="#2E353A" stroke-miterlimit="10"/>
<path d="M230.658 316.404C234.126 316.144 242.392 314.033 242.392 312.449C242.292 311.838 242.081 311.249 241.769 310.712C237.033 312.952 231.903 314.259 226.664 314.561C221.113 314.845 217.579 314.894 215.504 314.885C213.864 315.933 213.257 316.599 215.463 316.932C218.94 317.492 227.197 316.68 230.658 316.404Z" fill="white" stroke="#2E353A" stroke-miterlimit="10"/>
<path d="M239.194 243.73C239.194 243.73 220.26 242.106 216.529 243.202C212.798 244.298 212.265 249.008 213.331 252.443C214.397 255.877 226.394 306.936 226.394 306.936L237.587 304.029L231.461 265.67L239.194 243.73Z" fill="white"/>
<path d="M235.971 247.774C235.971 247.774 228.034 245.874 228.313 247.23C228.591 248.586 229.133 250.754 229.133 250.754C229.133 250.754 224.475 245.33 223.926 248.854C223.376 252.378 231.306 268.642 231.306 268.642L235.971 247.774Z" fill="#9097D5"/>
<g style="mix-blend-mode:multiply" opacity="0.3">
<path d="M235.971 247.774C235.971 247.774 228.034 245.874 228.313 247.23C228.591 248.586 229.133 250.754 229.133 250.754C229.133 250.754 224.475 245.33 223.926 248.854C223.376 252.378 231.306 268.642 231.306 268.642L235.971 247.774Z" fill="#D9DCF2"/>
</g>
<path d="M239.194 243.73C239.194 243.73 220.26 242.106 216.529 243.202C212.798 244.298 212.265 249.008 213.331 252.443C214.397 255.877 226.394 306.936 226.394 306.936L237.587 304.029L231.461 265.67L239.194 243.73Z" stroke="#2E353A" stroke-miterlimit="10"/>
<path d="M227.361 250.819L231.65 257.071L231.15 250.064" stroke="#2E353A" stroke-linecap="round" stroke-linejoin="round"/>
<path d="M299.899 197.73C299.899 197.73 284.704 200.702 284.105 201.295C283.507 201.888 269.714 241.489 269.714 241.489H305.097C305.097 241.489 321.292 202.513 319.857 201.498C318.422 200.483 302.9 197.316 299.899 197.73Z" fill="white" stroke="#2E353A" stroke-linecap="round" stroke-linejoin="round"/>
<path d="M311.821 216.016L311.124 217.527L306.68 214.36L309.878 218.769L302.227 218.217L307.238 221.384L299.038 235.561L307.656 234.181L313.347 221.384L311.821 216.016Z" fill="#9097D5"/>
<g style="mix-blend-mode:multiply" opacity="0.3">
<path d="M311.821 216.016L311.124 217.527L306.68 214.36L309.878 218.769L302.227 218.217L307.238 221.384L299.038 235.561L307.656 234.181L313.347 221.384L311.821 216.016Z" fill="#D9DCF2"/>
</g>
<path d="M304.778 212.411L313.355 220.271L305.204 219.208" stroke="#2E353A" stroke-linecap="round" stroke-linejoin="round"/>
<path d="M299.899 197.73C299.899 197.73 296.783 198.339 293.339 199.062C292.584 202.156 290.969 209.066 291.125 211.193C291.321 213.97 293.519 212.979 295.323 212.582C296.897 212.232 305.581 202.407 308.345 198.688C304.622 198.022 301.153 197.568 299.899 197.73Z" fill="#2E353A" stroke="#2E353A" stroke-linecap="round" stroke-linejoin="round"/>
<path d="M276.799 225.655H283.671L278.365 242.317H271.297L276.799 225.655Z" fill="#2E353A"/>
<path d="M296.504 195.749C296.504 195.749 292.502 209.61 293.904 209.813C295.307 210.016 304.097 200.304 304.901 198.323C305.704 196.342 308.509 189.805 308.509 189.805C308.509 189.805 302.9 195.359 296.504 195.749Z" fill="white" stroke="#2E353A" stroke-linecap="round" stroke-linejoin="round"/>
<g style="mix-blend-mode:multiply">
<path d="M304.901 198.323C305.721 196.35 308.509 189.805 308.509 189.805C308.509 189.805 302.9 195.359 296.504 195.749L296.225 196.723C297.234 197.535 299.111 198.891 300.005 199.086C300.899 199.281 299.185 203.674 297.947 206.63C300.94 203.666 304.409 199.541 304.901 198.323Z" fill="#9097D5"/>
</g>
<g style="mix-blend-mode:multiply" opacity="0.3">
<path d="M304.901 198.323C305.721 196.35 308.509 189.805 308.509 189.805C308.509 189.805 302.9 195.359 296.504 195.749L296.225 196.723C297.234 197.535 299.111 198.891 300.005 199.086C300.899 199.281 299.185 203.674 297.947 206.63C300.94 203.666 304.409 199.541 304.901 198.323Z" fill="#D9DCF2"/>
</g>
<path d="M290.583 173.492C290.583 173.492 281.867 174.45 280.653 168.937C279.44 163.423 284.54 162.4 287.681 164.877C290.083 166.76 285.983 161.279 289.37 159.363C292.756 157.447 293.248 159.842 297.127 160.565C301.006 161.288 302.695 160.086 308.746 160.086C314.798 160.086 315.536 166.322 315.536 170.155C315.536 173.987 313.355 183.829 313.355 183.829C313.355 183.829 309.722 184.787 307.057 183.829C304.392 182.871 301.243 179.769 302.211 177.836C303.179 175.904 300.76 174.954 298.332 174.954C295.905 174.954 290.583 173.492 290.583 173.492Z" fill="#2E353A" stroke="#2E353A" stroke-linecap="round" stroke-linejoin="round"/>
<path d="M302.121 171.454C303.667 171.266 305.198 170.976 306.705 170.585C313.355 168.888 315.495 171.649 315.495 171.649" stroke="white" stroke-width="0.75" stroke-linecap="round" stroke-linejoin="round"/>
<path d="M296.2 171.438C297.05 171.587 297.912 171.657 298.775 171.649" stroke="white" stroke-width="0.75" stroke-linecap="round" stroke-linejoin="round"/>
<path d="M307.779 174.198C307.779 174.198 312.281 173.768 314.421 176.107" stroke="white" stroke-width="0.75" stroke-linecap="round" stroke-linejoin="round"/>
<path d="M252.863 224.786C252.863 224.993 252.801 225.196 252.685 225.368C252.569 225.54 252.404 225.674 252.21 225.754C252.017 225.833 251.804 225.854 251.599 225.813C251.394 225.773 251.206 225.673 251.058 225.527C250.91 225.38 250.809 225.193 250.768 224.99C250.727 224.787 250.748 224.576 250.828 224.385C250.908 224.194 251.044 224.03 251.218 223.915C251.392 223.8 251.596 223.738 251.806 223.738C251.944 223.738 252.082 223.766 252.21 223.818C252.339 223.871 252.455 223.948 252.554 224.045C252.652 224.143 252.73 224.258 252.783 224.385C252.836 224.512 252.863 224.648 252.863 224.786Z" fill="white" stroke="#2E353A" stroke-width="0.5" stroke-miterlimit="10"/>
<path d="M253.462 225.103C254.196 225.103 254.79 224.514 254.79 223.787C254.79 223.061 254.196 222.472 253.462 222.472C252.728 222.472 252.134 223.061 252.134 223.787C252.134 224.514 252.728 225.103 253.462 225.103Z" fill="white" stroke="#2E353A" stroke-width="0.5" stroke-miterlimit="10"/>
<path d="M253.093 226.654C253.627 226.654 254.061 226.225 254.061 225.695C254.061 225.166 253.627 224.737 253.093 224.737C252.559 224.737 252.125 225.166 252.125 225.695C252.125 226.225 252.559 226.654 253.093 226.654Z" fill="white" stroke="#2E353A" stroke-width="0.5" stroke-miterlimit="10"/>
<path d="M276.57 224.737C276.571 224.945 276.511 225.148 276.395 225.321C276.28 225.495 276.115 225.63 275.922 225.711C275.729 225.791 275.516 225.813 275.311 225.774C275.105 225.734 274.916 225.635 274.767 225.489C274.618 225.343 274.516 225.156 274.475 224.953C274.433 224.749 274.454 224.538 274.534 224.346C274.614 224.155 274.749 223.99 274.923 223.875C275.097 223.76 275.302 223.698 275.512 223.698C275.791 223.698 276.059 223.807 276.257 224.002C276.455 224.196 276.567 224.461 276.57 224.737Z" fill="white" stroke="#2E353A" stroke-width="0.5" stroke-miterlimit="10"/>
<path d="M278.497 223.738C278.498 224.001 278.421 224.258 278.275 224.477C278.129 224.696 277.92 224.867 277.675 224.968C277.431 225.069 277.161 225.096 276.901 225.045C276.641 224.994 276.402 224.868 276.215 224.682C276.028 224.497 275.9 224.26 275.849 224.003C275.797 223.745 275.825 223.479 275.927 223.236C276.029 222.994 276.202 222.788 276.423 222.643C276.644 222.498 276.903 222.421 277.168 222.423C277.521 222.423 277.858 222.562 278.108 222.808C278.357 223.055 278.497 223.39 278.497 223.738Z" fill="white" stroke="#2E353A" stroke-width="0.5" stroke-miterlimit="10"/>
<path d="M277.767 225.655C277.767 225.844 277.71 226.03 277.604 226.187C277.497 226.345 277.346 226.467 277.169 226.54C276.993 226.613 276.798 226.632 276.61 226.595C276.423 226.558 276.25 226.466 276.115 226.332C275.98 226.198 275.888 226.028 275.85 225.842C275.813 225.656 275.832 225.463 275.905 225.288C275.978 225.113 276.102 224.963 276.262 224.858C276.421 224.753 276.608 224.697 276.799 224.697C276.927 224.696 277.053 224.72 277.171 224.767C277.289 224.815 277.396 224.886 277.486 224.975C277.576 225.064 277.647 225.17 277.695 225.287C277.744 225.404 277.768 225.529 277.767 225.655Z" fill="white" stroke="#2E353A" stroke-width="0.5" stroke-miterlimit="10"/>
<path d="M264.811 222.829C264.811 223.036 264.749 223.239 264.633 223.411C264.516 223.583 264.351 223.718 264.158 223.797C263.965 223.876 263.752 223.897 263.547 223.856C263.341 223.816 263.153 223.716 263.005 223.57C262.857 223.423 262.756 223.237 262.716 223.033C262.675 222.83 262.696 222.62 262.776 222.428C262.856 222.237 262.991 222.073 263.165 221.958C263.339 221.843 263.544 221.782 263.753 221.782C263.892 221.782 264.029 221.809 264.158 221.861C264.286 221.914 264.403 221.991 264.501 222.088C264.599 222.186 264.677 222.301 264.73 222.428C264.783 222.555 264.811 222.691 264.811 222.829Z" fill="white" stroke="#2E353A" stroke-width="0.5" stroke-miterlimit="10"/>
<path d="M266.738 221.83C266.738 222.092 266.659 222.348 266.513 222.566C266.366 222.783 266.157 222.953 265.913 223.053C265.668 223.153 265.4 223.179 265.14 223.128C264.881 223.077 264.643 222.951 264.456 222.766C264.269 222.581 264.142 222.345 264.09 222.088C264.039 221.832 264.065 221.566 264.166 221.324C264.267 221.082 264.439 220.875 264.659 220.73C264.878 220.584 265.137 220.507 265.401 220.507C265.577 220.506 265.751 220.539 265.914 220.605C266.077 220.671 266.224 220.769 266.349 220.892C266.473 221.015 266.571 221.161 266.638 221.322C266.705 221.484 266.739 221.656 266.738 221.83Z" fill="white" stroke="#2E353A" stroke-width="0.5" stroke-miterlimit="10"/>
<path d="M265.04 224.697C265.575 224.697 266.008 224.268 266.008 223.738C266.008 223.209 265.575 222.78 265.04 222.78C264.506 222.78 264.073 223.209 264.073 223.738C264.073 224.268 264.506 224.697 265.04 224.697Z" fill="white" stroke="#2E353A" stroke-width="0.5" stroke-miterlimit="10"/>
<path d="M261.129 222.691C261.713 222.691 262.187 222.222 262.187 221.644C262.187 221.065 261.713 220.596 261.129 220.596C260.545 220.596 260.071 221.065 260.071 221.644C260.071 222.222 260.545 222.691 261.129 222.691Z" fill="white" stroke="#2E353A" stroke-width="0.5" stroke-miterlimit="10"/>
<path d="M264.122 220.645C264.136 220.827 264.113 221.01 264.052 221.182C263.992 221.355 263.896 221.513 263.771 221.647C263.646 221.781 263.494 221.888 263.325 221.961C263.156 222.034 262.974 222.072 262.79 222.072C262.605 222.072 262.423 222.034 262.254 221.961C262.085 221.888 261.933 221.781 261.808 221.647C261.683 221.513 261.587 221.355 261.527 221.182C261.466 221.01 261.443 220.827 261.457 220.645C261.483 220.313 261.635 220.003 261.882 219.777C262.129 219.55 262.453 219.425 262.79 219.425C263.126 219.425 263.45 219.55 263.697 219.777C263.944 220.003 264.096 220.313 264.122 220.645Z" fill="white" stroke="#2E353A" stroke-width="0.5" stroke-miterlimit="10"/>
<path d="M263.384 222.561C263.384 222.751 263.327 222.936 263.221 223.093C263.115 223.251 262.963 223.374 262.787 223.446C262.61 223.519 262.415 223.538 262.228 223.501C262.04 223.464 261.868 223.373 261.732 223.239C261.597 223.105 261.505 222.934 261.467 222.748C261.43 222.562 261.449 222.369 261.522 222.194C261.596 222.019 261.72 221.87 261.879 221.764C262.038 221.659 262.225 221.603 262.416 221.603C262.544 221.602 262.67 221.626 262.788 221.674C262.906 221.721 263.013 221.792 263.103 221.881C263.193 221.97 263.264 222.076 263.313 222.193C263.361 222.31 263.385 222.435 263.384 222.561Z" fill="white" stroke="#2E353A" stroke-width="0.5" stroke-miterlimit="10"/>
<path d="M269.403 222.561C269.403 222.768 269.341 222.971 269.225 223.143C269.108 223.315 268.943 223.45 268.75 223.529C268.557 223.608 268.344 223.629 268.139 223.588C267.933 223.548 267.745 223.448 267.597 223.302C267.449 223.155 267.348 222.969 267.308 222.765C267.267 222.562 267.288 222.352 267.368 222.16C267.448 221.969 267.583 221.805 267.757 221.69C267.931 221.575 268.136 221.514 268.345 221.514C268.484 221.513 268.622 221.539 268.751 221.591C268.88 221.643 268.997 221.72 269.095 221.818C269.194 221.915 269.272 222.031 269.325 222.159C269.377 222.287 269.404 222.423 269.403 222.561Z" fill="white" stroke="#2E353A" stroke-width="0.5" stroke-miterlimit="10"/>
<path d="M270.001 222.87C270.735 222.87 271.33 222.281 271.33 221.554C271.33 220.828 270.735 220.239 270.001 220.239C269.268 220.239 268.673 220.828 268.673 221.554C268.673 222.281 269.268 222.87 270.001 222.87Z" fill="white" stroke="#2E353A" stroke-width="0.5" stroke-miterlimit="10"/>
<path d="M269.632 224.429C270.167 224.429 270.6 224 270.6 223.471C270.6 222.941 270.167 222.512 269.632 222.512C269.098 222.512 268.665 222.941 268.665 223.471C268.665 224 269.098 224.429 269.632 224.429Z" fill="white" stroke="#2E353A" stroke-width="0.5" stroke-miterlimit="10"/>
<path d="M273.167 222.285C273.242 222.092 273.374 221.925 273.545 221.806C273.716 221.687 273.919 221.621 274.128 221.616C274.337 221.611 274.543 221.668 274.719 221.779C274.896 221.889 275.035 222.05 275.12 222.239C275.205 222.428 275.231 222.638 275.195 222.842C275.16 223.046 275.064 223.235 274.919 223.385C274.775 223.535 274.59 223.64 274.386 223.685C274.182 223.731 273.969 223.715 273.773 223.641C273.644 223.592 273.525 223.517 273.424 223.422C273.323 223.327 273.242 223.214 273.186 223.088C273.13 222.962 273.099 222.826 273.096 222.688C273.092 222.551 273.116 222.413 273.167 222.285Z" fill="white" stroke="#2E353A" stroke-width="0.5" stroke-miterlimit="10"/>
<path d="M271.002 222.488C271.098 222.244 271.264 222.034 271.481 221.883C271.697 221.733 271.954 221.65 272.218 221.644C272.482 221.638 272.742 221.71 272.965 221.851C273.188 221.991 273.364 222.194 273.471 222.433C273.577 222.673 273.61 222.938 273.564 223.196C273.518 223.454 273.397 223.693 273.214 223.882C273.031 224.071 272.796 224.202 272.538 224.259C272.28 224.316 272.011 224.296 271.764 224.201C271.601 224.138 271.451 224.044 271.324 223.924C271.197 223.804 271.095 223.66 271.025 223.501C270.954 223.342 270.915 223.171 270.911 222.997C270.907 222.823 270.938 222.65 271.002 222.488Z" fill="white" stroke="#2E353A" stroke-width="0.5" stroke-miterlimit="10"/>
<path d="M272.396 221.01C272.44 220.892 272.508 220.785 272.595 220.693C272.682 220.602 272.787 220.529 272.903 220.478C273.019 220.427 273.145 220.4 273.271 220.398C273.398 220.396 273.524 220.419 273.642 220.466C273.821 220.534 273.976 220.653 274.087 220.808C274.197 220.963 274.259 221.147 274.264 221.337C274.268 221.527 274.216 221.714 274.113 221.874C274.01 222.035 273.862 222.161 273.687 222.238C273.511 222.314 273.317 222.338 273.128 222.304C272.939 222.271 272.764 222.184 272.626 222.052C272.488 221.92 272.392 221.751 272.351 221.566C272.31 221.38 272.326 221.187 272.396 221.01Z" fill="white" stroke="#2E353A" stroke-width="0.5" stroke-miterlimit="10"/>
<path d="M275.02 223.974C275.096 223.781 275.228 223.615 275.4 223.496C275.571 223.377 275.775 223.312 275.984 223.308C276.193 223.304 276.399 223.361 276.575 223.473C276.752 223.585 276.891 223.746 276.974 223.935C277.058 224.125 277.083 224.336 277.046 224.54C277.009 224.744 276.912 224.932 276.767 225.082C276.622 225.231 276.435 225.334 276.231 225.378C276.026 225.423 275.813 225.406 275.618 225.33C275.358 225.229 275.148 225.029 275.036 224.775C274.924 224.52 274.918 224.232 275.02 223.974Z" fill="white" stroke="#2E353A" stroke-width="0.5" stroke-miterlimit="10"/>
<path d="M272.855 224.209C272.951 223.965 273.119 223.755 273.336 223.606C273.553 223.456 273.81 223.373 274.074 223.368C274.339 223.363 274.599 223.436 274.821 223.577C275.044 223.719 275.219 223.922 275.325 224.162C275.431 224.403 275.462 224.668 275.415 224.926C275.368 225.184 275.245 225.422 275.062 225.611C274.878 225.799 274.642 225.929 274.383 225.985C274.125 226.04 273.855 226.019 273.609 225.923C273.28 225.794 273.016 225.542 272.875 225.22C272.733 224.899 272.726 224.536 272.855 224.209Z" fill="white" stroke="#2E353A" stroke-width="0.5" stroke-miterlimit="10"/>
<path d="M274.241 222.699C274.31 222.525 274.43 222.374 274.585 222.267C274.741 222.16 274.925 222.1 275.114 222.096C275.304 222.093 275.49 222.144 275.65 222.245C275.809 222.346 275.935 222.492 276.012 222.663C276.088 222.835 276.112 223.025 276.079 223.21C276.046 223.395 275.959 223.566 275.829 223.702C275.698 223.837 275.53 223.932 275.345 223.973C275.16 224.014 274.967 224.001 274.79 223.933C274.672 223.888 274.564 223.821 274.472 223.734C274.381 223.648 274.307 223.544 274.256 223.43C274.205 223.315 274.177 223.191 274.175 223.066C274.172 222.94 274.195 222.816 274.241 222.699Z" fill="white" stroke="#2E353A" stroke-width="0.5" stroke-miterlimit="10"/>
<path d="M259.21 221.976C259.26 221.848 259.335 221.73 259.431 221.631C259.527 221.531 259.642 221.452 259.77 221.396C259.897 221.341 260.034 221.312 260.173 221.31C260.312 221.307 260.45 221.333 260.58 221.384C260.829 221.493 261.026 221.693 261.129 221.943C261.233 222.193 261.235 222.472 261.136 222.723C261.037 222.975 260.843 223.178 260.596 223.292C260.349 223.405 260.067 223.42 259.809 223.333C259.548 223.231 259.338 223.031 259.226 222.777C259.114 222.523 259.108 222.235 259.21 221.976Z" fill="white" stroke="#2E353A" stroke-width="0.5" stroke-miterlimit="10"/>
<path d="M257.045 222.212C257.14 221.967 257.306 221.755 257.522 221.604C257.738 221.452 257.995 221.368 258.259 221.361C258.524 221.354 258.785 221.425 259.008 221.566C259.232 221.706 259.409 221.908 259.516 222.148C259.623 222.388 259.656 222.654 259.611 222.912C259.565 223.17 259.443 223.409 259.26 223.599C259.077 223.788 258.841 223.92 258.583 223.976C258.324 224.033 258.055 224.012 257.808 223.917C257.645 223.855 257.495 223.762 257.368 223.642C257.241 223.523 257.14 223.38 257.069 223.221C256.998 223.063 256.959 222.892 256.955 222.719C256.951 222.546 256.982 222.373 257.045 222.212Z" fill="white" stroke="#2E353A" stroke-width="0.5" stroke-miterlimit="10"/>
<path d="M258.431 220.693C258.525 220.457 258.709 220.266 258.945 220.164C259.18 220.062 259.447 220.057 259.686 220.149C259.925 220.242 260.117 220.425 260.22 220.658C260.323 220.891 260.329 221.155 260.235 221.392C260.142 221.629 259.957 221.819 259.722 221.921C259.486 222.023 259.22 222.028 258.981 221.936C258.741 221.843 258.549 221.66 258.446 221.427C258.343 221.194 258.338 220.93 258.431 220.693Z" fill="white" stroke="#2E353A" stroke-width="0.5" stroke-miterlimit="10"/>
<path d="M265.36 224.973C265.36 225.18 265.298 225.382 265.182 225.555C265.066 225.727 264.9 225.861 264.707 225.94C264.514 226.02 264.301 226.04 264.096 226C263.891 225.96 263.702 225.86 263.554 225.713C263.407 225.567 263.306 225.38 263.265 225.177C263.224 224.974 263.245 224.763 263.325 224.572C263.405 224.38 263.541 224.217 263.715 224.102C263.889 223.987 264.093 223.925 264.302 223.925C264.442 223.924 264.58 223.95 264.708 224.003C264.837 224.055 264.954 224.132 265.053 224.23C265.151 224.327 265.229 224.443 265.282 224.571C265.335 224.698 265.361 224.835 265.36 224.973Z" fill="white" stroke="#2E353A" stroke-width="0.5" stroke-miterlimit="10"/>
<path d="M267.32 223.966C267.322 224.228 267.244 224.485 267.098 224.704C266.952 224.923 266.743 225.094 266.499 225.195C266.254 225.296 265.985 225.323 265.725 225.272C265.465 225.222 265.226 225.095 265.038 224.91C264.851 224.724 264.723 224.488 264.672 224.23C264.621 223.973 264.648 223.706 264.75 223.464C264.852 223.222 265.025 223.015 265.246 222.87C265.467 222.725 265.727 222.649 265.992 222.65C266.343 222.653 266.68 222.792 266.929 223.038C267.177 223.284 267.318 223.618 267.32 223.966Z" fill="white" stroke="#2E353A" stroke-width="0.5" stroke-miterlimit="10"/>
<path d="M265.59 226.84C266.124 226.84 266.557 226.411 266.557 225.882C266.557 225.353 266.124 224.924 265.59 224.924C265.055 224.924 264.622 225.353 264.622 225.882C264.622 226.411 265.055 226.84 265.59 226.84Z" fill="white" stroke="#2E353A" stroke-width="0.5" stroke-miterlimit="10"/>
<path d="M255.914 225.655C255.728 225.75 255.518 225.789 255.31 225.766C255.102 225.744 254.906 225.66 254.746 225.527C254.586 225.394 254.469 225.216 254.411 225.017C254.352 224.819 254.355 224.607 254.418 224.409C254.481 224.212 254.602 224.037 254.765 223.908C254.928 223.778 255.126 223.7 255.335 223.682C255.543 223.664 255.752 223.707 255.936 223.807C256.119 223.907 256.268 224.058 256.365 224.242C256.43 224.364 256.47 224.497 256.483 224.635C256.495 224.772 256.48 224.91 256.438 225.042C256.396 225.173 256.328 225.295 256.238 225.401C256.148 225.506 256.038 225.592 255.914 225.655Z" fill="white" stroke="#2E353A" stroke-width="0.5" stroke-miterlimit="10"/>
<path d="M257.71 226.889C257.554 226.985 257.379 227.047 257.198 227.073C257.016 227.099 256.831 227.088 256.654 227.04C256.477 226.992 256.312 226.908 256.169 226.794C256.026 226.681 255.908 226.539 255.823 226.378C255.738 226.217 255.687 226.04 255.674 225.859C255.66 225.678 255.685 225.496 255.746 225.324C255.807 225.153 255.902 224.996 256.027 224.863C256.152 224.73 256.303 224.623 256.471 224.55C256.781 224.416 257.131 224.403 257.45 224.514C257.769 224.625 258.034 224.852 258.191 225.149C258.348 225.445 258.385 225.79 258.296 226.113C258.207 226.436 257.997 226.713 257.71 226.889Z" fill="white" stroke="#2E353A" stroke-width="0.5" stroke-miterlimit="10"/>
<path d="M255.651 227.125C255.482 227.212 255.29 227.248 255.099 227.228C254.909 227.208 254.729 227.132 254.582 227.01C254.435 226.889 254.328 226.727 254.274 226.545C254.221 226.363 254.222 226.169 254.28 225.988C254.337 225.807 254.448 225.647 254.597 225.529C254.746 225.41 254.928 225.338 255.118 225.321C255.309 225.304 255.501 225.344 255.668 225.436C255.836 225.527 255.973 225.665 256.061 225.833C256.121 225.945 256.158 226.067 256.169 226.192C256.181 226.317 256.167 226.444 256.129 226.564C256.091 226.684 256.029 226.796 255.947 226.892C255.865 226.988 255.765 227.067 255.651 227.125Z" fill="white" stroke="#2E353A" stroke-width="0.5" stroke-miterlimit="10"/>
<path d="M257.767 223.649C257.581 223.745 257.371 223.783 257.163 223.761C256.955 223.738 256.759 223.655 256.599 223.521C256.439 223.388 256.322 223.211 256.264 223.012C256.205 222.813 256.208 222.601 256.271 222.404C256.334 222.206 256.455 222.032 256.618 221.902C256.781 221.773 256.98 221.694 257.188 221.676C257.396 221.658 257.605 221.702 257.789 221.801C257.972 221.901 258.121 222.052 258.218 222.236C258.282 222.358 258.321 222.492 258.333 222.629C258.345 222.766 258.33 222.904 258.288 223.035C258.246 223.166 258.179 223.288 258.089 223.394C258 223.499 257.89 223.586 257.767 223.649Z" fill="white" stroke="#2E353A" stroke-width="0.5" stroke-miterlimit="10"/>
<path d="M259.555 224.924C259.241 225.086 258.876 225.117 258.54 225.012C258.203 224.907 257.922 224.674 257.759 224.364C257.596 224.054 257.564 223.692 257.67 223.359C257.776 223.025 258.011 222.747 258.325 222.585C258.48 222.505 258.649 222.457 258.823 222.441C258.997 222.426 259.173 222.445 259.34 222.497C259.506 222.549 259.661 222.633 259.795 222.745C259.929 222.856 260.04 222.992 260.12 223.146C260.201 223.299 260.251 223.467 260.266 223.64C260.281 223.812 260.262 223.986 260.209 224.151C260.157 224.316 260.072 224.469 259.96 224.602C259.847 224.735 259.71 224.844 259.555 224.924Z" fill="white" stroke="#2E353A" stroke-width="0.5" stroke-miterlimit="10"/>
<path d="M257.48 225.119C257.312 225.204 257.122 225.238 256.934 225.217C256.746 225.196 256.568 225.12 256.424 224.999C256.279 224.878 256.174 224.718 256.121 224.538C256.069 224.358 256.071 224.167 256.127 223.988C256.184 223.81 256.293 223.652 256.44 223.534C256.587 223.416 256.766 223.344 256.955 223.327C257.143 223.31 257.332 223.348 257.499 223.438C257.665 223.527 257.801 223.662 257.89 223.828C257.95 223.939 257.986 224.061 257.998 224.186C258.01 224.312 257.996 224.438 257.958 224.558C257.92 224.678 257.858 224.79 257.776 224.886C257.694 224.982 257.593 225.061 257.48 225.119Z" fill="white" stroke="#2E353A" stroke-width="0.5" stroke-miterlimit="10"/>
<path d="M272.56 224.559C272.374 224.654 272.164 224.693 271.956 224.67C271.748 224.647 271.552 224.564 271.392 224.431C271.232 224.298 271.115 224.12 271.056 223.921C270.998 223.722 271.001 223.511 271.064 223.313C271.127 223.116 271.247 222.941 271.411 222.812C271.574 222.682 271.772 222.603 271.981 222.585C272.189 222.567 272.398 222.611 272.582 222.711C272.765 222.811 272.914 222.962 273.011 223.146C273.076 223.268 273.116 223.401 273.129 223.538C273.141 223.676 273.126 223.814 273.084 223.946C273.042 224.077 272.974 224.199 272.884 224.304C272.794 224.41 272.684 224.496 272.56 224.559Z" fill="white" stroke="#2E353A" stroke-width="0.5" stroke-miterlimit="10"/>
<path d="M274.356 225.793C274.121 225.915 273.856 225.965 273.592 225.937C273.329 225.91 273.08 225.805 272.877 225.637C272.673 225.469 272.525 225.245 272.451 224.993C272.376 224.742 272.379 224.474 272.459 224.224C272.538 223.974 272.691 223.752 272.898 223.589C273.104 223.425 273.356 223.325 273.619 223.303C273.883 223.28 274.148 223.336 274.38 223.463C274.611 223.589 274.8 223.782 274.921 224.015C275.081 224.325 275.111 224.686 275.005 225.018C274.899 225.351 274.666 225.629 274.356 225.793Z" fill="white" stroke="#2E353A" stroke-width="0.5" stroke-miterlimit="10"/>
<path d="M272.306 226.028C272.138 226.115 271.948 226.151 271.76 226.131C271.571 226.111 271.393 226.036 271.248 225.916C271.102 225.796 270.996 225.636 270.942 225.457C270.888 225.277 270.889 225.085 270.945 224.906C271.001 224.727 271.109 224.568 271.255 224.45C271.402 224.331 271.581 224.258 271.769 224.24C271.958 224.222 272.147 224.26 272.314 224.348C272.481 224.437 272.618 224.572 272.707 224.737C272.826 224.961 272.851 225.223 272.775 225.465C272.7 225.707 272.531 225.909 272.306 226.028Z" fill="white" stroke="#2E353A" stroke-width="0.5" stroke-miterlimit="10"/>
<path d="M262.334 226.256C262.149 226.351 261.939 226.39 261.731 226.367C261.523 226.344 261.326 226.261 261.166 226.128C261.006 225.995 260.889 225.817 260.831 225.618C260.773 225.419 260.775 225.208 260.838 225.01C260.901 224.813 261.022 224.638 261.185 224.509C261.349 224.379 261.547 224.3 261.755 224.283C261.964 224.265 262.173 224.308 262.356 224.408C262.54 224.508 262.689 224.659 262.785 224.843C262.85 224.965 262.889 225.098 262.901 225.235C262.913 225.372 262.897 225.511 262.856 225.642C262.814 225.773 262.746 225.895 262.657 226C262.567 226.105 262.458 226.192 262.334 226.256Z" fill="white" stroke="#2E353A" stroke-width="0.5" stroke-miterlimit="10"/>
<path d="M264.052 227.521C264.721 227.222 265.018 226.442 264.715 225.78C264.413 225.119 263.626 224.825 262.957 225.124C262.289 225.424 261.992 226.203 262.295 226.865C262.597 227.527 263.384 227.821 264.052 227.521Z" fill="white" stroke="#2E353A" stroke-width="0.5" stroke-miterlimit="10"/>
<path d="M262.072 227.725C261.846 227.828 261.589 227.841 261.354 227.762C261.119 227.682 260.924 227.516 260.809 227.298C260.694 227.08 260.669 226.827 260.737 226.59C260.806 226.354 260.964 226.153 261.178 226.028C261.291 225.963 261.417 225.921 261.547 225.904C261.677 225.888 261.809 225.898 261.935 225.934C262.061 225.97 262.178 226.031 262.279 226.113C262.381 226.195 262.465 226.297 262.525 226.412C262.586 226.527 262.622 226.653 262.632 226.783C262.642 226.912 262.625 227.042 262.583 227.165C262.54 227.288 262.473 227.401 262.386 227.497C262.298 227.593 262.191 227.671 262.072 227.725Z" fill="white" stroke="#2E353A" stroke-width="0.5" stroke-miterlimit="10"/>
<path d="M259.12 225.346C258.997 225.41 258.862 225.448 258.724 225.46C258.585 225.472 258.446 225.457 258.313 225.416C258.181 225.374 258.058 225.307 257.951 225.219C257.845 225.13 257.757 225.022 257.693 224.9C257.629 224.778 257.59 224.644 257.578 224.507C257.566 224.37 257.581 224.232 257.623 224.101C257.665 223.969 257.733 223.848 257.822 223.742C257.911 223.637 258.021 223.55 258.144 223.487C258.393 223.359 258.683 223.334 258.951 223.417C259.219 223.501 259.442 223.687 259.571 223.933C259.7 224.18 259.726 224.467 259.641 224.732C259.556 224.997 259.369 225.218 259.12 225.346Z" fill="white" stroke="#2E353A" stroke-width="0.5" stroke-miterlimit="10"/>
<path d="M260.908 226.548C260.674 226.668 260.411 226.716 260.15 226.687C259.889 226.659 259.643 226.554 259.442 226.387C259.241 226.22 259.094 225.997 259.021 225.748C258.948 225.498 258.951 225.233 259.03 224.985C259.108 224.737 259.26 224.518 259.464 224.355C259.669 224.192 259.918 224.093 260.179 224.07C260.44 224.047 260.703 224.101 260.933 224.225C261.164 224.35 261.352 224.539 261.473 224.77C261.556 224.923 261.606 225.091 261.622 225.264C261.638 225.436 261.62 225.611 261.567 225.776C261.514 225.942 261.429 226.095 261.316 226.228C261.202 226.36 261.064 226.469 260.908 226.548Z" fill="white" stroke="#2E353A" stroke-width="0.5" stroke-miterlimit="10"/>
<path d="M258.858 226.816C258.688 226.904 258.496 226.94 258.305 226.92C258.115 226.899 257.935 226.823 257.788 226.702C257.641 226.58 257.534 226.418 257.481 226.236C257.427 226.054 257.429 225.86 257.486 225.679C257.544 225.499 257.654 225.339 257.803 225.22C257.952 225.101 258.134 225.029 258.325 225.012C258.515 224.996 258.707 225.036 258.875 225.127C259.043 225.218 259.179 225.357 259.268 225.525C259.386 225.75 259.409 226.012 259.332 226.254C259.255 226.496 259.085 226.698 258.858 226.816Z" fill="white" stroke="#2E353A" stroke-width="0.5" stroke-miterlimit="10"/>
<path d="M261.703 223.747C261.517 223.842 261.307 223.881 261.099 223.858C260.891 223.835 260.695 223.752 260.535 223.619C260.375 223.486 260.258 223.308 260.2 223.109C260.141 222.91 260.144 222.699 260.207 222.501C260.27 222.304 260.391 222.129 260.554 222C260.717 221.87 260.916 221.791 261.124 221.773C261.332 221.755 261.541 221.799 261.725 221.899C261.908 221.999 262.058 222.15 262.154 222.334C262.219 222.456 262.259 222.589 262.272 222.726C262.285 222.864 262.269 223.002 262.227 223.134C262.185 223.265 262.117 223.387 262.027 223.492C261.937 223.598 261.827 223.684 261.703 223.747Z" fill="white" stroke="#2E353A" stroke-width="0.5" stroke-miterlimit="10"/>
<path d="M263.491 224.981C263.258 225.1 262.994 225.147 262.734 225.118C262.474 225.089 262.228 224.984 262.027 224.817C261.827 224.65 261.681 224.428 261.608 224.179C261.534 223.93 261.537 223.665 261.615 223.417C261.694 223.17 261.844 222.951 262.048 222.788C262.252 222.625 262.5 222.525 262.761 222.501C263.022 222.477 263.284 222.53 263.515 222.654C263.745 222.777 263.934 222.965 264.056 223.194C264.138 223.349 264.188 223.517 264.203 223.69C264.219 223.863 264.2 224.038 264.147 224.204C264.095 224.37 264.01 224.524 263.897 224.657C263.784 224.79 263.646 224.9 263.491 224.981Z" fill="white" stroke="#2E353A" stroke-width="0.5" stroke-miterlimit="10"/>
<path d="M261.441 225.216C261.271 225.304 261.079 225.34 260.888 225.32C260.698 225.3 260.518 225.224 260.371 225.102C260.224 224.98 260.117 224.818 260.063 224.636C260.01 224.454 260.012 224.261 260.069 224.08C260.127 223.899 260.237 223.739 260.386 223.62C260.535 223.502 260.717 223.429 260.908 223.413C261.098 223.396 261.29 223.436 261.458 223.527C261.626 223.619 261.762 223.757 261.851 223.925C261.969 224.15 261.992 224.413 261.915 224.655C261.838 224.897 261.668 225.099 261.441 225.216Z" fill="white" stroke="#2E353A" stroke-width="0.5" stroke-miterlimit="10"/>
<path d="M255.455 222.585C255.269 222.681 255.059 222.72 254.851 222.697C254.643 222.674 254.447 222.591 254.286 222.458C254.126 222.324 254.01 222.147 253.951 221.948C253.893 221.749 253.895 221.538 253.959 221.34C254.022 221.143 254.142 220.968 254.306 220.838C254.469 220.709 254.667 220.63 254.876 220.612C255.084 220.594 255.293 220.638 255.476 220.738C255.66 220.837 255.809 220.989 255.906 221.173C255.97 221.295 256.009 221.428 256.021 221.565C256.033 221.702 256.018 221.84 255.976 221.972C255.934 222.103 255.866 222.224 255.777 222.33C255.687 222.435 255.578 222.522 255.455 222.585Z" fill="white" stroke="#2E353A" stroke-width="0.5" stroke-miterlimit="10"/>
<path d="M257.17 223.858C257.839 223.559 258.135 222.779 257.833 222.117C257.531 221.456 256.744 221.162 256.075 221.461C255.407 221.76 255.11 222.54 255.412 223.202C255.715 223.864 256.502 224.158 257.17 223.858Z" fill="white" stroke="#2E353A" stroke-width="0.5" stroke-miterlimit="10"/>
<path d="M255.192 224.055C254.966 224.173 254.702 224.196 254.458 224.121C254.215 224.045 254.011 223.877 253.892 223.653C253.774 223.429 253.75 223.168 253.826 222.926C253.902 222.685 254.072 222.484 254.298 222.366C254.41 222.308 254.533 222.272 254.659 222.261C254.785 222.25 254.912 222.263 255.032 222.301C255.153 222.338 255.265 222.398 255.362 222.479C255.459 222.559 255.539 222.657 255.598 222.768C255.657 222.879 255.693 223 255.704 223.125C255.716 223.25 255.702 223.375 255.664 223.495C255.627 223.614 255.566 223.725 255.485 223.822C255.404 223.918 255.304 223.997 255.192 224.055Z" fill="white" stroke="#2E353A" stroke-width="0.5" stroke-miterlimit="10"/>
<path d="M268.689 224.201C268.566 224.278 268.427 224.329 268.283 224.35C268.139 224.371 267.991 224.363 267.85 224.325C267.71 224.287 267.578 224.221 267.464 224.13C267.35 224.04 267.257 223.927 267.189 223.799C267.122 223.671 267.082 223.53 267.072 223.386C267.062 223.242 267.082 223.097 267.131 222.961C267.181 222.825 267.258 222.7 267.358 222.595C267.458 222.49 267.579 222.406 267.714 222.35C267.836 222.285 267.969 222.245 268.107 222.232C268.245 222.219 268.384 222.234 268.516 222.275C268.648 222.315 268.77 222.382 268.876 222.47C268.982 222.558 269.069 222.667 269.132 222.788C269.262 223.034 269.289 223.321 269.206 223.586C269.123 223.85 268.937 224.072 268.689 224.201Z" fill="white" stroke="#2E353A" stroke-width="0.5" stroke-miterlimit="10"/>
<path d="M270.477 225.436C270.164 225.596 269.799 225.627 269.463 225.522C269.126 225.417 268.845 225.184 268.681 224.875C268.546 224.568 268.533 224.222 268.645 223.906C268.757 223.59 268.986 223.328 269.285 223.173C269.585 223.017 269.933 222.98 270.259 223.068C270.585 223.157 270.865 223.364 271.043 223.649C271.205 223.961 271.236 224.323 271.13 224.657C271.024 224.992 270.79 225.271 270.477 225.436Z" fill="white" stroke="#2E353A" stroke-width="0.5" stroke-miterlimit="10"/>
<path d="M268.427 225.671C268.257 225.759 268.065 225.795 267.875 225.775C267.684 225.754 267.504 225.679 267.358 225.557C267.211 225.435 267.104 225.273 267.05 225.091C266.996 224.909 266.998 224.715 267.055 224.535C267.113 224.354 267.223 224.194 267.373 224.075C267.522 223.956 267.703 223.884 267.894 223.868C268.085 223.851 268.276 223.891 268.444 223.982C268.612 224.073 268.749 224.212 268.837 224.38C268.955 224.605 268.978 224.867 268.902 225.109C268.825 225.351 268.654 225.553 268.427 225.671Z" fill="white" stroke="#2E353A" stroke-width="0.5" stroke-miterlimit="10"/>
<path d="M274.47 245.508H254.692L250.453 224.786H278.71L274.47 245.508Z" fill="white" stroke="#2E353A" stroke-miterlimit="10"/>
<path d="M263.884 245.508L278.292 224.786H272.388L258.325 245.508H263.884Z" fill="#2E353A"/>
<path d="M254.372 243.974L267.517 224.786H260.735L252.929 236.909L254.372 243.974Z" fill="#2E353A"/>
<path d="M289.837 242.147C289.837 242.147 268.78 240.823 258.677 240.035C248.575 239.248 241.351 236.073 238.177 240.563C235.004 245.054 218.12 299.953 218.12 299.953L216.267 303.688C216.267 303.688 225.328 310.29 227.197 310.29C229.067 310.29 237.037 282.308 241.859 277.29C246.681 272.272 250.1 260.092 250.1 260.092H287.156L289.837 242.147Z" fill="white"/>
<path d="M255.84 246.58C254.528 247.409 253.334 248.409 252.289 249.552C252.289 249.552 249.551 243.6 248.731 245.768C247.911 247.936 249.829 252.532 249.829 252.532C249.829 252.532 246 250.64 246.271 253.076C246.441 254.602 246.534 256.136 246.549 257.672C246.549 257.672 241.9 267.416 238.62 275C235.34 282.584 225.771 304.768 224.68 308.292C224.6 308.557 224.545 308.829 224.516 309.104C225.329 309.647 226.239 310.033 227.197 310.241C229.059 310.241 237.037 282.259 241.859 277.241C246.681 272.223 250.1 260.092 250.1 260.092H285.606C286.131 258.914 286.533 258.021 286.713 257.656L273.593 243.04C273.593 243.04 258.628 244.615 255.84 246.58Z" fill="#9097D5"/>
<g style="mix-blend-mode:multiply" opacity="0.3">
<path d="M255.84 246.58C254.528 247.409 253.334 248.409 252.289 249.552C252.289 249.552 249.551 243.6 248.731 245.768C247.911 247.936 249.829 252.532 249.829 252.532C249.829 252.532 246 250.64 246.271 253.076C246.441 254.602 246.534 256.136 246.549 257.672C246.549 257.672 241.9 267.416 238.62 275C235.34 282.584 225.771 304.768 224.68 308.292C224.6 308.557 224.545 308.829 224.516 309.104C225.329 309.647 226.239 310.033 227.197 310.241C229.059 310.241 237.037 282.259 241.859 277.241C246.681 272.223 250.1 260.092 250.1 260.092H285.606C286.131 258.914 286.533 258.021 286.713 257.656L273.593 243.04C273.593 243.04 258.628 244.615 255.84 246.58Z" fill="#D9DCF2"/>
</g>
<path d="M289.837 242.147C289.837 242.147 268.78 240.823 258.677 240.035C248.575 239.248 241.351 236.073 238.177 240.563C235.004 245.054 218.12 299.953 218.12 299.953L216.267 303.688C216.267 303.688 225.328 310.29 227.197 310.29C229.067 310.29 237.037 282.308 241.859 277.29C246.681 272.272 250.1 260.092 250.1 260.092H287.156L289.837 242.147Z" stroke="#2E353A" stroke-miterlimit="10"/>
<path d="M253.052 252.443L250.116 260.092L255.717 254.814" stroke="#2E353A" stroke-linecap="round" stroke-linejoin="round"/>
<path d="M216.267 303.688C216.267 303.688 208.805 303.956 206.673 303.688C204.541 303.42 199.203 300.789 198.137 302.876C197.071 304.963 201.605 308.414 205.066 311.053C208.526 313.692 218.932 317.127 222.13 317.654C225.328 318.182 227.197 310.265 227.197 310.265L216.267 303.688Z" fill="#2E353A" stroke="#2E353A" stroke-miterlimit="10"/>
<path d="M224.45 316.509C220.982 315.543 214.307 313.619 210.666 312.1C207.025 310.582 201.121 305.206 198.366 302.543C198.276 302.638 198.199 302.745 198.137 302.86C197.071 304.971 201.605 308.398 205.066 311.037C208.526 313.676 218.932 317.11 222.13 317.638C222.583 317.671 223.037 317.584 223.445 317.385C223.853 317.187 224.2 316.885 224.45 316.509Z" fill="white" stroke="#2E353A" stroke-miterlimit="10"/>
<path d="M319.907 210.47V240.035H282.392C273.987 240.035 267.181 246.239 267.181 253.888C267.181 261.545 273.987 267.749 282.392 267.749H282.654C283.057 267.748 283.456 267.826 283.829 267.978C284.201 268.13 284.54 268.354 284.825 268.636C285.11 268.918 285.336 269.253 285.49 269.622C285.643 269.991 285.722 270.387 285.721 270.786V317.07H357.282V210.47C357.282 201.116 349 193.516 338.742 193.418C328.361 193.37 319.907 201.019 319.907 210.47Z" fill="#9097D5" stroke="#2E353A" stroke-linecap="round" stroke-linejoin="round"/>
<path d="M327.861 238.728V224.81L327.606 217.811C327.606 217.811 326.622 210.503 325.081 207.06C324.327 205.502 323.137 204.192 321.653 203.284C320.507 205.51 319.909 207.972 319.907 210.47V238.728H327.861Z" fill="#2E353A"/>
<path d="M326.622 210.47V240.035H292.1C288.39 240.035 284.832 241.495 282.209 244.093C279.585 246.691 278.111 250.214 278.111 253.888C278.11 255.708 278.471 257.51 279.174 259.192C279.876 260.873 280.906 262.401 282.206 263.689C283.505 264.976 285.047 265.997 286.745 266.694C288.443 267.39 290.263 267.749 292.1 267.749C292.503 267.748 292.903 267.826 293.275 267.978C293.648 268.13 293.986 268.354 294.271 268.636C294.556 268.918 294.782 269.253 294.936 269.622C295.09 269.991 295.168 270.387 295.167 270.786V317.07H361.013V210.47C361.013 205.975 359.221 201.661 356.025 198.467C352.829 195.274 348.489 193.459 343.949 193.418C341.679 193.404 339.428 193.835 337.326 194.686C335.225 195.537 333.314 196.791 331.704 198.375C330.093 199.96 328.815 201.845 327.943 203.92C327.071 205.996 326.622 208.222 326.622 210.47Z" fill="#9097D5" stroke="#2E353A" stroke-linecap="round" stroke-linejoin="round"/>
<path opacity="0.3" d="M326.622 210.47V240.035H292.1C288.39 240.035 284.832 241.495 282.209 244.093C279.585 246.691 278.111 250.214 278.111 253.888C278.11 255.708 278.471 257.51 279.174 259.192C279.876 260.873 280.906 262.401 282.206 263.689C283.505 264.976 285.047 265.997 286.745 266.694C288.443 267.39 290.263 267.749 292.1 267.749C292.503 267.748 292.903 267.826 293.275 267.978C293.648 268.13 293.986 268.354 294.271 268.636C294.556 268.918 294.782 269.253 294.936 269.622C295.09 269.991 295.168 270.387 295.167 270.786V317.07H361.013V210.47C361.013 205.975 359.221 201.661 356.025 198.467C352.829 195.274 348.489 193.459 343.949 193.418C341.679 193.404 339.428 193.835 337.326 194.686C335.225 195.537 333.314 196.791 331.704 198.375C330.093 199.96 328.815 201.845 327.943 203.92C327.071 205.996 326.622 208.222 326.622 210.47Z" fill="#D9DCF2"/>
<path d="M310.895 211.591L316.299 235.74C316.299 235.74 318.66 240.912 323.859 240.319C329.058 239.727 331.69 233.011 330.091 229.406C328.492 225.801 319.89 201.498 319.89 201.498L313.33 199.874" fill="white"/>
<g style="mix-blend-mode:multiply">
<path d="M316.135 200.873C317.867 202.422 319.118 204.427 319.743 206.654C320.563 210.097 327.254 228.261 327.123 230.332C326.991 232.403 321.834 233.085 321.834 233.085C321.834 233.085 325.671 235.983 326.286 237.348L326.901 238.712C326.901 238.712 330.312 236.933 330.591 233.905C330.652 231.758 330.176 229.63 329.205 227.709L319.898 201.498L316.135 200.873Z" fill="#9097D5"/>
</g>
<g style="mix-blend-mode:multiply" opacity="0.3">
<path d="M316.135 200.873C317.867 202.422 319.118 204.427 319.743 206.654C320.563 210.097 327.254 228.261 327.123 230.332C326.991 232.403 321.834 233.085 321.834 233.085C321.834 233.085 325.671 235.983 326.286 237.348L326.901 238.712C326.901 238.712 330.312 236.933 330.591 233.905C330.652 231.758 330.176 229.63 329.205 227.709L319.898 201.498L316.135 200.873Z" fill="#D9DCF2"/>
</g>
<path d="M310.895 211.591L316.299 235.74C316.299 235.74 318.66 240.912 323.859 240.319C329.058 239.727 331.69 233.011 330.091 229.406C328.492 225.801 319.89 201.498 319.89 201.498L313.33 199.874" stroke="#2E353A" stroke-linecap="round" stroke-linejoin="round"/>
<path d="M326.893 238.728C326.893 238.728 327.057 235.171 322.662 233.385C318.267 231.599 316.651 233.19 313.248 233.385C305.812 234.105 298.421 235.227 291.108 236.747C285.303 238.135 281.145 235.675 279.546 237.453C278.629 238.447 277.886 239.586 277.349 240.823C277.349 240.823 303.302 240.514 312.297 240.117C321.292 239.719 325.893 241.286 326.893 238.728Z" fill="white"/>
<g style="mix-blend-mode:multiply">
<path d="M323.359 233.905C323.359 233.905 323.638 234.717 321.415 236.105C319.193 237.494 287.918 240.352 287.918 240.352H323.9C323.9 240.352 327.426 239.443 327.426 238.622C327.426 237.802 325.581 233.905 323.359 233.905Z" fill="#9097D5"/>
</g>
<g style="mix-blend-mode:multiply" opacity="0.3">
<path d="M323.359 233.905C323.359 233.905 323.638 234.717 321.415 236.105C319.193 237.494 287.918 240.352 287.918 240.352H323.9C323.9 240.352 327.426 239.443 327.426 238.622C327.426 237.802 325.581 233.905 323.359 233.905Z" fill="#D9DCF2"/>
</g>
<path d="M326.893 238.728C326.893 238.728 327.057 235.171 322.662 233.385C318.267 231.599 316.651 233.19 313.248 233.385C305.812 234.105 298.421 235.227 291.108 236.747C285.303 238.135 281.145 235.675 279.546 237.453C278.629 238.447 277.886 239.586 277.349 240.823C277.349 240.823 303.302 240.514 312.297 240.117C321.292 239.719 325.893 241.286 326.893 238.728Z" stroke="#2E353A" stroke-linecap="round" stroke-linejoin="round"/>
<path d="M223.343 221.27C223.236 221.269 223.13 221.247 223.032 221.205C222.839 221.119 222.688 220.964 222.608 220.77C222.529 220.576 222.528 220.36 222.605 220.166L226.771 210.543C226.83 210.412 226.923 210.298 227.042 210.214C227.16 210.129 227.298 210.078 227.443 210.064L235.537 209.382C235.654 209.344 235.779 209.333 235.901 209.349C236.024 209.365 236.141 209.409 236.244 209.476C236.347 209.543 236.434 209.633 236.497 209.738C236.56 209.843 236.599 209.961 236.609 210.083C236.62 210.205 236.603 210.328 236.559 210.442C236.515 210.556 236.446 210.659 236.356 210.744C236.266 210.828 236.159 210.891 236.041 210.928C235.923 210.965 235.799 210.975 235.676 210.958L228.05 211.607L224.081 220.791C224.017 220.932 223.914 221.052 223.783 221.137C223.652 221.222 223.5 221.268 223.343 221.27Z" fill="white" stroke="#2E353A" stroke-miterlimit="10"/>
<path d="M226.213 239.637H216.316L214.2 218.915H228.329L226.213 239.637Z" fill="#2E353A" stroke="#2E353A" stroke-miterlimit="10"/>
<path d="M228.788 217.502H213.749V220.482H228.788V217.502Z" fill="white" stroke="#2E353A" stroke-miterlimit="10"/>
<path d="M290.583 173.492C290.583 173.492 288.402 185.964 289.132 189.805C289.862 193.646 293.002 197.235 299.3 196.999C305.598 196.764 308.509 189.805 308.509 189.805C308.509 189.805 314.56 189.561 315.29 186.443C316.02 183.325 314.56 181.165 312.871 181.165C311.464 181.281 310.082 181.604 308.771 182.123C308.771 182.123 304.417 180.451 304.671 178.77C304.925 177.089 308.55 174.45 307.82 173.492C307.09 172.534 290.583 173.492 290.583 173.492Z" fill="white"/>
<g style="mix-blend-mode:multiply">
<path d="M315.29 186.443C316.02 183.325 314.56 181.165 312.871 181.165C311.464 181.281 310.082 181.604 308.771 182.123C308.771 182.123 304.417 180.451 304.671 178.77C304.925 177.089 308.55 174.45 307.82 173.492C307.639 173.248 306.418 173.127 304.704 173.086C304.261 174.02 301.719 179.639 303.244 183.642C304.884 188.051 304.638 192.574 302.826 194.385C301.235 195.96 297.594 196.683 296.75 196.821C297.607 196.95 298.475 196.999 299.341 196.967C305.639 196.723 308.55 189.773 308.55 189.773C308.55 189.773 314.56 189.561 315.29 186.443Z" fill="#9097D5"/>
</g>
<g style="mix-blend-mode:multiply" opacity="0.3">
<path d="M315.29 186.443C316.02 183.325 314.56 181.165 312.871 181.165C311.464 181.281 310.082 181.604 308.771 182.123C308.771 182.123 304.417 180.451 304.671 178.77C304.925 177.089 308.55 174.45 307.82 173.492C307.639 173.248 306.418 173.127 304.704 173.086C304.261 174.02 301.719 179.639 303.244 183.642C304.884 188.051 304.638 192.574 302.826 194.385C301.235 195.96 297.594 196.683 296.75 196.821C297.607 196.95 298.475 196.999 299.341 196.967C305.639 196.723 308.55 189.773 308.55 189.773C308.55 189.773 314.56 189.561 315.29 186.443Z" fill="#D9DCF2"/>
</g>
<path d="M290.583 173.492C290.583 173.492 288.402 185.964 289.132 189.805C289.862 193.646 293.002 197.235 299.3 196.999C305.598 196.764 308.509 189.805 308.509 189.805C308.509 189.805 314.56 189.561 315.29 186.443C316.02 183.325 314.56 181.165 312.871 181.165C311.464 181.281 310.082 181.604 308.771 182.123C308.771 182.123 304.417 180.451 304.671 178.77C304.925 177.089 308.55 174.45 307.82 173.492C307.09 172.534 290.583 173.492 290.583 173.492Z" stroke="#2E353A" stroke-linecap="round" stroke-linejoin="round"/>
<path d="M290.829 185.485C290.829 185.485 296.635 188.36 301.965 185.721C301.965 185.721 301.481 191.478 295.913 191.957C290.346 192.436 290.829 185.485 290.829 185.485Z" fill="#2E353A" stroke="#2E353A" stroke-linecap="round" stroke-linejoin="round"/>
<path d="M294.946 179.728L294.7 181.165C294.7 181.165 292.765 182.123 293.486 183.082C293.763 183.369 294.106 183.585 294.486 183.711C294.866 183.837 295.272 183.869 295.667 183.804" stroke="#2E353A" stroke-linecap="round" stroke-linejoin="round"/>
<path d="M299.62 178.981C299.62 179.671 299.3 180.24 298.906 180.24C298.513 180.24 298.185 179.671 298.185 178.981C298.185 178.291 298.505 177.714 298.906 177.714C299.308 177.714 299.62 178.283 299.62 178.981Z" fill="#2E353A"/>
<path d="M293.093 178.323C293.093 179.014 292.765 179.582 292.371 179.582C291.977 179.582 291.649 179.014 291.649 178.323C291.649 177.633 291.977 177.057 292.371 177.057C292.765 177.057 293.093 177.625 293.093 178.323Z" fill="#2E353A"/>
<path d="M293.183 191.413C294.008 191.886 294.968 192.078 295.913 191.957C297.027 191.894 298.103 191.532 299.024 190.91C299.946 190.287 300.679 189.428 301.145 188.425C296.553 188.222 294.29 189.821 293.183 191.413Z" fill="white" stroke="#2E353A" stroke-linecap="round" stroke-linejoin="round"/>
<path d="M298.332 174.929C298.332 174.929 301.211 172.826 301.875 176.107" stroke="#2E353A" stroke-linecap="round" stroke-linejoin="round"/>
<path d="M294.257 175.23C294.257 175.23 292.904 173.435 291.699 175.075" stroke="#2E353A" stroke-linecap="round" stroke-linejoin="round"/>
<path d="M74.4314 259.694H71.2334L80.7372 250.599H83.9352L74.4314 259.694Z" fill="white" stroke="#2E353A" stroke-linecap="round" stroke-linejoin="round"/>
<path d="M72.2338 259.694H69.0358L78.5396 250.599H81.7376L72.2338 259.694Z" fill="#2E353A" stroke="#2E353A" stroke-linecap="round" stroke-linejoin="round"/>
<path d="M88.3304 259.694H91.5284L82.0246 250.599H78.8266L88.3304 259.694Z" fill="white" stroke="#2E353A" stroke-linecap="round" stroke-linejoin="round"/>
<path d="M90.5362 259.694H93.7342L84.2304 250.599H81.0324L90.5362 259.694Z" fill="#2E353A" stroke="#2E353A" stroke-linecap="round" stroke-linejoin="round"/>
<path d="M165.599 259.694H162.401L171.905 250.599H175.103L165.599 259.694Z" fill="white" stroke="#2E353A" stroke-linecap="round" stroke-linejoin="round"/>
<path d="M163.393 259.694H160.195L169.707 250.599H172.905L163.393 259.694Z" fill="#2E353A" stroke="#2E353A" stroke-linecap="round" stroke-linejoin="round"/>
<path d="M179.498 259.694H182.696L173.192 250.599H169.994L179.498 259.694Z" fill="#2E353A" stroke="#2E353A" stroke-linecap="round" stroke-linejoin="round"/>
<path d="M181.704 259.694H184.902L175.398 250.599H172.2L181.704 259.694Z" fill="white" stroke="#2E353A" stroke-linecap="round" stroke-linejoin="round"/>
<path d="M187.6 178.689H74.3494V253.368H187.6V178.689Z" fill="#2E353A" stroke="#2E353A" stroke-linecap="round" stroke-linejoin="round"/>
<path d="M185.73 178.689H72.4798V253.368H185.73V178.689Z" fill="#2E353A" stroke="#2E353A" stroke-linecap="round" stroke-linejoin="round"/>
<path d="M183.877 253.36V178.689H70.6266V179.728L68.1338 184.957V253.36H183.877Z" fill="#2E353A" stroke="#2E353A" stroke-linecap="round" stroke-linejoin="round"/>
<path d="M183.877 253.36V178.689L180.892 184.957V253.36H183.877Z" fill="#2E353A" stroke="#2E353A" stroke-linecap="round" stroke-linejoin="round"/>
<path d="M68.1338 184.957H180.892L183.877 178.689H70.6266L68.1338 184.957Z" fill="white" stroke="#2E353A" stroke-linecap="round" stroke-linejoin="round"/>
<path d="M73.39 244.615H173.02" stroke="white" stroke-linecap="round" stroke-linejoin="round"/>
<path d="M151.7 238.216H94.218C93.9165 238.192 93.6355 238.056 93.4306 237.835C93.2257 237.615 93.1119 237.326 93.1119 237.027C93.1119 236.727 93.2257 236.439 93.4306 236.218C93.6355 235.998 93.9165 235.862 94.218 235.837H151.7C152.001 235.862 152.283 235.998 152.487 236.218C152.692 236.439 152.806 236.727 152.806 237.027C152.806 237.326 152.692 237.615 152.487 237.835C152.283 238.056 152.001 238.192 151.7 238.216Z" fill="#2E353A" stroke="white" stroke-linecap="round" stroke-linejoin="round"/>
<path d="M92.4304 217.803V190.739H150.421V219.321" stroke="white" stroke-linecap="round" stroke-linejoin="round"/>
<path d="M200.703 264.054H57.6296V317.11H200.703V264.054Z" fill="#2E353A" stroke="#2E353A" stroke-linecap="round" stroke-linejoin="round"/>
<path d="M200.695 264.054H148.387V317.11H200.695V264.054Z" fill="#9097D5" stroke="#2E353A" stroke-linecap="round" stroke-linejoin="round"/>
<g style="mix-blend-mode:multiply" opacity="0.3">
<path d="M200.695 264.054H148.387V317.11H200.695V264.054Z" fill="#D9DCF2"/>
</g>
<path d="M203.737 258.906H54.5956V264.842H203.737V258.906Z" fill="#2E353A" stroke="#2E353A" stroke-linecap="round" stroke-linejoin="round"/>
<path d="M200.572 262.56H57.7116V268.496H200.572V262.56Z" fill="#2E353A" stroke="#2E353A" stroke-linecap="round" stroke-linejoin="round"/>
<path d="M203.737 258.906H153.758V264.842H203.737V258.906Z" fill="#9097D5" stroke="#2E353A" stroke-linecap="round" stroke-linejoin="round"/>
<g style="mix-blend-mode:multiply" opacity="0.3">
<path d="M203.737 258.906H153.758V264.842H203.737V258.906Z" fill="#D9DCF2"/>
</g>
</svg>
