<svg width="451" height="460"  viewBox="0 0 451 460" fill="none" xmlns="http://www.w3.org/2000/svg">
<path d="M97.1522 282.182H187.392V134.486H97.1522V282.182ZM144.241 246.67H183.841V243.082H144.241V210.119H183.841V206.54H144.241V174.266H183.841V170.688H144.241V138.064H184.102V278.594H144.241V246.67ZM100.424 138.064H140.979V170.688H100.424V138.064ZM100.424 174.266H140.979V206.54H100.424V174.266ZM100.424 210.146H140.979V243.11H100.424V210.146ZM100.424 246.698H140.979V278.622H100.424V246.698Z" fill="#263238"/>
<path d="M187.085 131.1C186.054 119.616 180.856 108.94 172.511 101.166C164.166 93.3928 153.276 89.0833 141.979 89.0833C130.682 89.0833 119.793 93.3928 111.448 101.166C103.103 108.94 97.9045 119.616 96.8728 131.1L96.6566 133.52H187.302L187.085 131.1ZM101.469 129.085C102.649 120.841 106.229 113.148 111.743 107.005L137.185 129.085H101.469ZM139.375 125.175L114.843 103.877C121.664 97.7505 130.296 94.127 139.366 93.5824L139.375 125.175ZM143.709 93.5272C152.258 93.8602 160.488 96.9236 167.24 102.286L143.682 124.853L143.709 93.5272ZM145.629 129.085L170.53 105.211C176.999 111.614 181.205 120.027 182.489 129.131L145.629 129.085Z" fill="#263238"/>
<g opacity="0.7">
<path opacity="0.7" d="M97.1522 282.182H187.392V134.486H97.1522V282.182ZM144.241 246.67H183.841V243.082H144.241V210.119H183.841V206.54H144.241V174.266H183.841V170.688H144.241V138.064H184.102V278.594H144.241V246.67ZM100.424 138.064H140.979V170.688H100.424V138.064ZM100.424 174.266H140.979V206.54H100.424V174.266ZM100.424 210.146H140.979V243.11H100.424V210.146ZM100.424 246.698H140.979V278.622H100.424V246.698Z" fill="white"/>
<path opacity="0.7" d="M187.085 131.1C186.054 119.616 180.856 108.94 172.511 101.166C164.166 93.3928 153.276 89.0833 141.979 89.0833C130.682 89.0833 119.793 93.3928 111.448 101.166C103.103 108.94 97.9045 119.616 96.8728 131.1L96.6566 133.52H187.302L187.085 131.1ZM101.469 129.085C102.649 120.841 106.229 113.148 111.743 107.005L137.185 129.085H101.469ZM139.375 125.175L114.843 103.877C121.664 97.7505 130.296 94.127 139.366 93.5824L139.375 125.175ZM143.709 93.5272C152.258 93.8602 160.488 96.9236 167.24 102.286L143.682 124.853L143.709 93.5272ZM145.629 129.085L170.53 105.211C176.999 111.614 181.205 120.027 182.489 129.131L145.629 129.085Z" fill="white"/>
</g>
<path d="M263.708 282.182H353.938V134.486H263.708V282.182ZM310.788 246.67H350.387V243.082H310.788V210.119H350.387V206.54H310.788V174.266H350.387V170.688H310.788V138.064H350.649V278.594H310.788V246.67ZM266.997 138.11H307.489V170.734H266.997V138.11ZM266.997 174.312H307.489V206.54H266.997V174.312ZM266.997 210.192H307.489V243.156H266.997V210.192ZM266.997 246.744H307.489V278.668H266.997V246.744Z" fill="#263238"/>
<path d="M353.668 131.1C352.636 119.616 347.438 108.94 339.093 101.166C330.748 93.3928 319.859 89.0833 308.562 89.0833C297.264 89.0833 286.375 93.3928 278.03 101.166C269.685 108.94 264.487 119.616 263.455 131.1L263.239 133.52H353.848L353.668 131.1ZM268.051 129.085C269.229 120.842 272.805 113.149 278.316 107.005L303.758 129.085H268.051ZM305.903 125.175L281.381 103.877C288.202 97.7505 296.833 94.127 305.903 93.5824V125.175ZM310.247 93.5272C318.792 93.8603 327.02 96.9238 333.769 102.286L310.247 124.853V93.5272ZM312.211 129.085L337.112 105.211C343.581 111.614 347.787 120.027 349.072 129.131L312.211 129.085Z" fill="#263238"/>
<g opacity="0.7">
<path opacity="0.7" d="M263.708 282.182H353.938V134.486H263.708V282.182ZM310.788 246.67H350.387V243.082H310.788V210.119H350.387V206.54H310.788V174.266H350.387V170.688H310.788V138.064H350.649V278.594H310.788V246.67ZM266.997 138.11H307.489V170.734H266.997V138.11ZM266.997 174.312H307.489V206.54H266.997V174.312ZM266.997 210.192H307.489V243.156H266.997V210.192ZM266.997 246.744H307.489V278.668H266.997V246.744Z" fill="white"/>
<path opacity="0.7" d="M353.668 131.1C352.636 119.616 347.438 108.94 339.093 101.166C330.748 93.3928 319.859 89.0833 308.562 89.0833C297.264 89.0833 286.375 93.3928 278.03 101.166C269.685 108.94 264.487 119.616 263.455 131.1L263.239 133.52H353.848L353.668 131.1ZM268.051 129.085C269.229 120.842 272.805 113.149 278.316 107.005L303.758 129.085H268.051ZM305.903 125.175L281.381 103.877C288.202 97.7505 296.833 94.127 305.903 93.5824V125.175ZM310.247 93.5272C318.792 93.8603 327.02 96.9238 333.769 102.286L310.247 124.853V93.5272ZM312.211 129.085L337.112 105.211C343.581 111.614 347.787 120.027 349.072 129.131L312.211 129.085Z" fill="white"/>
</g>
<path d="M231.453 413.347C330.875 413.347 411.472 388.205 411.472 357.19C411.472 326.175 330.875 301.033 231.453 301.033C132.031 301.033 51.4331 326.175 51.4331 357.19C51.4331 388.205 132.031 413.347 231.453 413.347Z" fill="#6C75C6"/>
<path opacity="0.5" d="M231.453 413.347C330.875 413.347 411.472 388.205 411.472 357.19C411.472 326.175 330.875 301.033 231.453 301.033C132.031 301.033 51.4331 326.175 51.4331 357.19C51.4331 388.205 132.031 413.347 231.453 413.347Z" fill="white"/>
<path d="M82.5073 296.295H387.635" stroke="#263238" stroke-linecap="round" stroke-linejoin="round"/>
<path d="M371.449 211.122L366.042 200.358V185.316H360.878V200.358L355.47 211.122C355.325 211.411 355.255 211.734 355.267 212.059C355.279 212.384 355.373 212.7 355.54 212.977C355.706 213.255 355.94 213.483 356.218 213.642C356.496 213.8 356.81 213.883 357.128 213.882H369.746C370.068 213.891 370.387 213.814 370.672 213.659C370.956 213.504 371.196 213.276 371.368 212.997C371.54 212.719 371.638 212.399 371.652 212.07C371.666 211.742 371.596 211.414 371.449 211.122Z" fill="#6C75C6"/>
<path d="M376.982 188.425H349.955L356.714 164.717H370.223L376.982 188.425Z" fill="#263238"/>
<path opacity="0.5" d="M376.982 188.425H349.955L356.714 164.717H370.223L376.982 188.425Z" fill="white"/>
<path d="M394.691 213.983H331.876V218.822H337.941V313.895H391.222V218.822H394.691V213.983Z" fill="#263238"/>
<path opacity="0.7" d="M394.691 213.983H331.876V218.822H337.941V313.895H391.222V218.822H394.691V213.983Z" fill="white"/>
<path d="M388.302 222.364H343.682V247.572H388.302V222.364Z" stroke="white" stroke-miterlimit="10"/>
<path d="M371.197 231.205H360.796V234.296H371.197V231.205Z" stroke="white" stroke-miterlimit="10"/>
<path d="M388.302 253.359H343.682V278.567H388.302V253.359Z" stroke="white" stroke-miterlimit="10"/>
<path d="M371.197 262.2H360.796V265.291H371.197V262.2Z" stroke="white" stroke-miterlimit="10"/>
<path d="M388.302 284.354H343.682V309.562H388.302V284.354Z" stroke="white" stroke-miterlimit="10"/>
<path d="M371.197 293.195H360.796V296.286H371.197V293.195Z" stroke="white" stroke-miterlimit="10"/>
<path d="M220.521 180.605C220.521 180.605 220.521 177.45 216.186 173.024C211.851 168.599 209.066 166.078 209.066 166.078C209.066 166.078 206.903 173.337 210.923 177.762C213.885 180.875 217.095 183.731 220.521 186.3V180.605Z" fill="#6C75C6"/>
<path d="M214.23 200.339C214.23 200.339 214.23 197.184 209.895 192.758C205.561 188.333 202.776 185.803 202.776 185.803C202.776 185.803 200.613 193.071 204.632 197.496C207.592 200.625 210.803 203.496 214.23 206.08V200.339Z" fill="#6C75C6"/>
<path d="M220.287 185.987C220.287 185.987 220.611 182.85 225.378 178.922C230.146 174.993 233.174 172.776 233.174 172.776C233.174 172.776 234.58 180.237 230.119 184.193C226.852 186.969 223.365 189.462 219.692 191.645L220.287 185.987Z" fill="#6C75C6"/>
<path d="M212.653 209.291C212.653 209.291 213.302 206.209 218.448 202.805C223.594 199.401 226.829 197.533 226.829 197.533C226.829 197.533 227.46 205.105 222.621 208.573C219.086 210.984 215.36 213.089 211.482 214.866L212.653 209.291Z" fill="#6C75C6"/>
<path d="M214.077 234.701C214.077 234.701 214.077 231.546 218.412 227.12C222.747 222.695 225.532 220.165 225.532 220.165C225.532 220.165 227.695 227.433 223.675 231.858C220.713 234.971 217.503 237.827 214.077 240.396V234.701Z" fill="#6C75C6"/>
<path d="M213.978 240.902C213.978 240.902 214.42 237.774 210.743 232.769C207.066 227.764 204.668 224.857 204.668 224.857C204.668 224.857 201.514 231.739 204.876 236.698C207.378 240.218 210.167 243.517 213.212 246.56L213.978 240.902Z" fill="#6C75C6"/>
<path d="M209.733 259.284C209.733 259.284 209.733 256.128 214.068 251.703C218.403 247.278 221.188 244.72 221.188 244.72C221.188 244.72 223.351 251.988 219.331 256.413C216.371 259.531 213.161 262.39 209.733 264.96V259.284Z" fill="#6C75C6"/>
<path d="M212.626 276C212.626 276 211.842 272.936 214.942 267.536C218.042 262.136 220.097 258.971 220.097 258.971C220.097 258.971 224 265.411 221.206 270.765C219.1 274.543 216.689 278.134 213.996 281.502L212.626 276Z" fill="#6C75C6"/>
<path d="M220.917 179.796C220.694 183.087 220.296 186.364 219.728 189.612C218.015 198.646 213.735 204.47 212.022 212.612C210.31 220.754 215.222 231.288 213.906 241.767C212.59 252.246 208.589 258.078 209.733 265.07C210.878 272.062 217.006 291.695 217.006 291.695" stroke="#263238" stroke-width="0.75" stroke-linecap="round" stroke-linejoin="round"/>
<path d="M220.205 188.094L224.874 184.432" stroke="#263238" stroke-width="0.75" stroke-linecap="round" stroke-linejoin="round"/>
<path d="M220.422 183.88L218.466 180.329" stroke="#263238" stroke-width="0.75" stroke-linecap="round" stroke-linejoin="round"/>
<path d="M212.275 212.262C212.275 212.262 216.186 209.263 220.205 206.273" stroke="#263238" stroke-width="0.75" stroke-linecap="round" stroke-linejoin="round"/>
<path d="M214.023 205.473C212.119 201.822 209.861 198.377 207.282 195.187" stroke="#263238" stroke-width="0.75" stroke-linecap="round" stroke-linejoin="round"/>
<path d="M214.23 239.2C216.464 235.002 219.281 231.156 222.594 227.783" stroke="#263238" stroke-width="0.75" stroke-linecap="round" stroke-linejoin="round"/>
<path d="M213.473 243.634C212.286 240.784 210.869 238.039 209.238 235.428C206.957 231.996 206.633 231.546 206.633 231.546" stroke="#263238" stroke-width="0.75" stroke-linecap="round" stroke-linejoin="round"/>
<path d="M209.733 265.089C210.726 262.579 211.904 260.149 213.257 257.821C214.611 255.666 216.136 253.629 217.817 251.73" stroke="#263238" stroke-width="0.75" stroke-linecap="round" stroke-linejoin="round"/>
<path d="M214.041 281.456C213.814 279.057 214.218 276.64 215.213 274.454C216.835 271.234 218.682 267.03 219.448 265.365" stroke="#263238" stroke-width="0.75" stroke-linecap="round" stroke-linejoin="round"/>
<path d="M192.141 222.824C192.141 222.824 191.808 220.837 194.052 217.589C196.296 214.342 197.783 212.437 197.783 212.437C197.783 212.437 199.91 216.752 197.855 219.972C196.334 222.263 194.624 224.417 192.745 226.412L192.141 222.824Z" fill="#6C75C6"/>
<path d="M198.189 234.499C198.189 234.499 197.855 232.521 200.099 229.264C202.343 226.007 203.821 224.112 203.821 224.112C203.821 224.112 205.957 228.436 203.902 231.656C202.378 233.944 200.669 236.099 198.792 238.096L198.189 234.499Z" fill="#6C75C6"/>
<path d="M192.889 226.164C192.889 226.164 192.349 224.232 188.942 222.29C185.535 220.349 183.399 219.31 183.399 219.31C183.399 219.31 183.309 224.14 186.527 226.127C188.871 227.509 191.325 228.688 193.863 229.65L192.889 226.164Z" fill="#6C75C6"/>
<path d="M200.126 239.936C200.126 239.936 199.396 238.096 195.809 236.514C192.222 234.931 189.987 234.131 189.987 234.131C189.987 234.131 190.402 238.952 193.8 240.571C196.273 241.686 198.832 242.591 201.451 243.276L200.126 239.936Z" fill="#6C75C6"/>
<path d="M201.938 256.027C201.938 256.027 201.604 254.049 198.414 251.758C195.223 249.467 193.214 248.179 193.214 248.179C193.214 248.179 192.628 252.982 195.62 255.309C197.806 256.933 200.121 258.367 202.541 259.596L201.938 256.027Z" fill="#6C75C6"/>
<path d="M202.641 259.909C202.641 259.909 202.037 257.996 203.803 254.454C205.57 250.912 206.777 248.814 206.777 248.814C206.777 248.814 209.481 252.779 207.904 256.266C206.712 258.742 205.319 261.111 203.74 263.35L202.641 259.909Z" fill="#6C75C6"/>
<path d="M208.084 275.89C208.084 275.89 208.309 273.893 211.355 271.418C214.402 268.944 216.357 267.554 216.357 267.554C216.357 267.554 217.204 272.311 214.347 274.804C212.257 276.554 210.026 278.12 207.678 279.487L208.084 275.89Z" fill="#6C75C6"/>
<path d="M207.273 270.958C207.273 270.958 206.939 268.98 203.749 266.69C200.559 264.399 198.549 263.12 198.549 263.12C198.549 263.12 197.963 267.913 200.955 270.241C203.141 271.864 205.457 273.298 207.877 274.528L207.273 270.958Z" fill="#6C75C6"/>
<path d="M207.237 281.732C207.237 281.732 207.399 279.726 204.885 276.69C202.37 273.654 200.739 271.888 200.739 271.888C200.739 271.888 198.982 276.377 201.298 279.404C203.009 281.54 204.893 283.525 206.93 285.338L207.237 281.732Z" fill="#6C75C6"/>
<path d="M191.808 222.355C192.301 224.395 192.902 226.407 193.61 228.381C195.647 233.855 198.946 237.038 200.892 241.96C202.839 246.882 200.892 254.021 202.812 260.452C204.731 266.883 207.877 270.094 207.904 274.602C207.931 279.11 206.173 291.64 206.173 291.64" stroke="#263238" stroke-width="0.75" stroke-linecap="round" stroke-linejoin="round"/>
<path d="M193.142 227.479L189.816 225.704" stroke="#263238" stroke-width="0.75" stroke-linecap="round" stroke-linejoin="round"/>
<path d="M192.556 224.857L193.403 222.419" stroke="#263238" stroke-width="0.75" stroke-linecap="round" stroke-linejoin="round"/>
<path d="M200.676 241.758C200.676 241.758 197.909 240.313 195.07 238.878" stroke="#263238" stroke-width="0.75" stroke-linecap="round" stroke-linejoin="round"/>
<path d="M198.765 237.443C199.654 235.04 200.736 232.717 202.001 230.497" stroke="#263238" stroke-width="0.75" stroke-linecap="round" stroke-linejoin="round"/>
<path d="M202.316 258.86C200.473 256.475 198.3 254.377 195.863 252.632" stroke="#263238" stroke-width="0.75" stroke-linecap="round" stroke-linejoin="round"/>
<path d="M203.271 261.565C203.717 259.643 204.32 257.763 205.074 255.944C206.146 253.543 206.3 253.23 206.3 253.23" stroke="#263238" stroke-width="0.75" stroke-linecap="round" stroke-linejoin="round"/>
<path d="M207.742 278.024C208.831 276.657 210.037 275.391 211.346 274.243C212.171 273.623 212.945 272.937 213.663 272.191" stroke="#263238" stroke-width="0.75" stroke-linecap="round" stroke-linejoin="round"/>
<path d="M207.895 274.602C207.005 273.138 206.008 271.744 204.912 270.434C203.833 269.235 202.661 268.127 201.406 267.122" stroke="#263238" stroke-width="0.75" stroke-linecap="round" stroke-linejoin="round"/>
<path d="M206.93 285.338C206.821 283.809 206.31 282.337 205.452 281.078C204.092 279.238 202.487 276.81 201.847 275.853" stroke="#263238" stroke-width="0.75" stroke-linecap="round" stroke-linejoin="round"/>
<path d="M200.712 290.03H221.846V300.766C221.846 301.374 221.609 301.957 221.188 302.386C220.768 302.816 220.197 303.057 219.602 303.057H202.947C202.352 303.057 201.781 302.816 201.36 302.386C200.939 301.957 200.703 301.374 200.703 300.766V290.03H200.712Z" fill="#263238" stroke="#263238" stroke-linecap="round" stroke-linejoin="round"/>
<path d="M370.719 384.036C370.719 384.036 382.002 281.952 383.408 270.48C384.814 259.008 386.292 251.74 382.453 250.084C378.614 248.428 287.824 236.928 284.219 237.489C280.614 238.05 278.461 238.924 277.496 241.086C276.532 243.248 268.854 319.626 268.854 319.626L370.719 384.036Z" fill="#6C75C6"/>
<path opacity="0.3" d="M370.719 384.036C370.719 384.036 382.002 281.952 383.408 270.48C384.814 259.008 386.292 251.74 382.453 250.084C378.614 248.428 287.824 236.928 284.219 237.489C280.614 238.05 278.461 238.924 277.496 241.086C276.532 243.248 268.854 319.626 268.854 319.626L370.719 384.036Z" fill="black"/>
<path d="M370.719 384.036C370.719 384.036 382.002 281.952 383.408 270.48C384.814 259.008 386.292 251.74 382.453 250.084C378.614 248.428 287.824 236.928 284.219 237.489C280.614 238.05 278.461 238.924 277.496 241.086C276.532 243.248 268.854 319.626 268.854 319.626L370.719 384.036Z" stroke="#263238" stroke-linecap="round" stroke-linejoin="round"/>
<path d="M271.098 263.966C271.098 263.966 244.448 261.942 242.772 265.291C241.096 268.64 242.529 310.85 243.015 314.051C243.502 317.253 246.134 318.854 247.576 319.663C249.018 320.473 280.921 321.503 283.336 318.936C285.751 316.37 287.653 266.956 285.977 265.162C284.301 263.368 271.098 263.966 271.098 263.966Z" fill="#6C75C6" stroke="#263238" stroke-linecap="round" stroke-linejoin="round"/>
<path d="M283.372 318.946C285.77 316.37 287.689 266.966 286.013 265.172C286.013 265.172 247.125 265.006 246.17 267.416C245.214 269.827 247.125 318.67 247.612 319.672C249.009 320.473 280.93 321.522 283.372 318.946Z" fill="#6C75C6"/>
<path opacity="0.3" d="M283.372 318.946C285.77 316.37 287.689 266.966 286.013 265.172C286.013 265.172 247.125 265.006 246.17 267.416C245.214 269.827 247.125 318.67 247.612 319.672C249.009 320.473 280.93 321.522 283.372 318.946Z" fill="black"/>
<path d="M283.372 318.946C285.77 316.37 287.689 266.966 286.013 265.172C286.013 265.172 247.125 265.006 246.17 267.416C245.214 269.827 247.125 318.67 247.612 319.672C249.009 320.473 280.93 321.522 283.372 318.946Z" stroke="#263238" stroke-linecap="round" stroke-linejoin="round"/>
<path d="M313.572 376.28C313.572 376.28 249.973 322.736 247.576 319.682C245.178 316.627 246.422 278.447 246.422 277.472C246.422 276.497 274.018 274.638 281.939 275.264C289.861 275.89 376.505 296.985 376.748 298.466C376.991 299.948 375.306 383.557 375.063 384.772C374.819 385.986 313.572 376.28 313.572 376.28Z" fill="#6C75C6" stroke="#263238" stroke-linecap="round" stroke-linejoin="round"/>
<path d="M319.818 242.549C319.818 242.549 320.295 232.53 318.376 232.19C316.456 231.849 303.497 233.432 297.494 233.873C291.492 234.315 277.334 232.659 275.865 235.042C274.396 237.424 266.267 271.842 268.187 274.362C270.106 276.883 305.903 287.96 308.778 286.856C311.653 285.752 319.818 242.549 319.818 242.549Z" fill="#6C75C6" stroke="#263238" stroke-linecap="round" stroke-linejoin="round"/>
<path d="M309.508 282.964C309.508 282.964 317.43 246.109 319.583 240.332C322.242 233.229 333.048 235.971 338.617 237.342C345.295 238.979 351.991 240.543 358.597 242.512C360.481 243.073 372.557 245.493 372.864 248.032C373.107 250.001 368.304 271.087 365.906 280.287C363.509 289.487 362.301 292.118 362.301 293.581C362.301 295.044 361.815 297.261 360.616 297.427C359.418 297.592 352.694 297.528 336.86 294.069C327.296 291.973 317.965 288.891 309.012 284.869L309.508 282.964Z" fill="#6C75C6"/>
<path opacity="0.3" d="M372.855 248.05C372.747 247.13 371.052 246.21 368.88 245.392C366.321 252.411 355.146 283.056 350.009 296.571C356.633 297.574 359.823 297.565 360.616 297.445C361.815 297.252 362.301 295.072 362.301 293.6C362.301 292.128 363.5 289.496 365.906 280.306C368.313 271.115 373.098 250.019 372.855 248.05Z" fill="black"/>
<path d="M309.508 282.964C309.508 282.964 317.43 246.109 319.583 240.332C322.242 233.229 333.048 235.971 338.617 237.342C345.295 238.979 351.991 240.543 358.597 242.512C360.481 243.073 372.557 245.493 372.864 248.032C373.107 250.001 368.304 271.087 365.906 280.287C363.509 289.487 362.301 292.118 362.301 293.581C362.301 295.044 361.815 297.261 360.616 297.427C359.418 297.592 352.694 297.528 336.86 294.069C327.296 291.973 317.965 288.891 309.012 284.869L309.508 282.964Z" stroke="#263238" stroke-linecap="round" stroke-linejoin="round"/>
<path d="M246.422 277.472L321.737 314.64L313.572 376.28L247.576 319.682C247.576 319.682 245.89 316.922 245.656 310.031C245.422 303.14 246.422 277.472 246.422 277.472Z" fill="#6C75C6" stroke="#263238" stroke-linecap="round" stroke-linejoin="round"/>
<path d="M353.542 284.344C349.099 284.657 344.665 285.025 340.212 285.08C332.543 285.172 324.793 284.62 317.421 287.233C311.175 289.45 311.418 294.832 311.418 297.04C311.418 299.248 311.175 373.244 311.653 376.915C312.13 380.586 320.773 385.977 323.657 386.216C326.541 386.455 375.261 386.575 376.937 385.839C378.614 385.103 380.299 382.407 380.299 377.016C380.299 371.625 383.228 292.597 381.795 289.165C379.38 283.424 368.844 283.875 363.969 283.875C360.481 283.884 357.011 284.096 353.542 284.344Z" fill="#6C75C6" stroke="#263238" stroke-linecap="round" stroke-linejoin="round"/>
<path d="M375.072 290.72C371.584 290.72 368.114 290.941 364.645 291.189C360.211 291.502 355.768 291.87 351.325 291.925C343.655 292.017 335.905 291.465 328.524 294.078C322.278 296.295 322.521 301.677 322.521 303.885C322.521 306.093 322.278 380.089 322.765 383.76C322.959 384.676 323.388 385.524 324.008 386.216C329.254 386.446 375.306 386.538 376.937 385.82C378.569 385.103 380.299 382.389 380.299 376.998C380.299 371.974 382.849 303.02 382.029 290.867C379.398 290.72 376.856 290.72 375.072 290.72Z" fill="#6C75C6"/>
<path opacity="0.3" d="M375.072 290.72C371.584 290.72 368.114 290.941 364.645 291.189C360.211 291.502 355.768 291.87 351.325 291.925C343.655 292.017 335.905 291.465 328.524 294.078C322.278 296.295 322.521 301.677 322.521 303.885C322.521 306.093 322.278 380.089 322.765 383.76C322.959 384.676 323.388 385.524 324.008 386.216C329.254 386.446 375.306 386.538 376.937 385.82C378.569 385.103 380.299 382.389 380.299 376.998C380.299 371.974 382.849 303.02 382.029 290.867C379.398 290.72 376.856 290.72 375.072 290.72Z" fill="black"/>
<path d="M375.072 290.72C371.584 290.72 368.114 290.941 364.645 291.189C360.211 291.502 355.768 291.87 351.325 291.925C343.655 292.017 335.905 291.465 328.524 294.078C322.278 296.295 322.521 301.677 322.521 303.885C322.521 306.093 322.278 380.089 322.765 383.76C322.959 384.676 323.388 385.524 324.008 386.216C329.254 386.446 375.306 386.538 376.937 385.82C378.569 385.103 380.299 382.389 380.299 376.998C380.299 371.974 382.849 303.02 382.029 290.867C379.398 290.72 376.856 290.72 375.072 290.72Z" stroke="#263238" stroke-linecap="round" stroke-linejoin="round"/>
<path d="M346.458 348.956L341.754 345.276L341.709 345.322C341.021 344.895 340.233 344.666 339.428 344.66H283.066C281.871 344.66 280.725 345.144 279.88 346.007C279.034 346.87 278.56 348.04 278.56 349.26V387.32C278.564 388.119 278.773 388.904 279.165 389.596C279.556 390.288 280.118 390.864 280.795 391.267L284.481 394.211L284.742 391.92H339.437C340.633 391.92 341.779 391.435 342.624 390.573C343.469 389.71 343.944 388.54 343.944 387.32V354.108L345.674 355.994L346.458 348.956Z" fill="#7A7A7A" stroke="#263238" stroke-linecap="round" stroke-linejoin="round"/>
<path d="M324.108 334.567H303.379C302.784 334.567 302.213 334.809 301.793 335.238C301.372 335.668 301.135 336.25 301.135 336.858V345.92C301.135 346.225 301.254 346.517 301.465 346.733C301.677 346.949 301.963 347.07 302.262 347.07H302.956C303.105 347.072 303.254 347.044 303.393 346.988C303.531 346.931 303.658 346.847 303.764 346.74C303.871 346.633 303.955 346.505 304.013 346.364C304.071 346.224 304.1 346.073 304.1 345.92V339.802C304.1 339.194 304.337 338.612 304.758 338.182C305.179 337.753 305.749 337.511 306.344 337.511H321.161C321.755 337.514 322.324 337.756 322.745 338.185C323.165 338.614 323.402 339.195 323.405 339.802V346.159C323.405 346.403 323.5 346.637 323.669 346.81C323.838 346.982 324.067 347.079 324.306 347.079H325.477C325.716 347.079 325.946 346.982 326.115 346.81C326.284 346.637 326.379 346.403 326.379 346.159V336.858C326.38 336.554 326.322 336.254 326.208 335.973C326.094 335.693 325.926 335.439 325.715 335.226C325.503 335.012 325.252 334.844 324.976 334.731C324.7 334.618 324.405 334.562 324.108 334.567Z" fill="#263238"/>
<path d="M344.043 348.248H287.932C285.374 348.248 283.3 350.365 283.3 352.976V390.715C283.3 393.326 285.374 395.444 287.932 395.444H344.043C346.601 395.444 348.675 393.326 348.675 390.715V352.976C348.675 350.365 346.601 348.248 344.043 348.248Z" fill="#7A7A7A"/>
<path opacity="0.3" d="M344.043 348.248H287.932C285.374 348.248 283.3 350.365 283.3 352.976V390.715C283.3 393.326 285.374 395.444 287.932 395.444H344.043C346.601 395.444 348.675 393.326 348.675 390.715V352.976C348.675 350.365 346.601 348.248 344.043 348.248Z" fill="black"/>
<path d="M344.043 348.248H287.932C285.374 348.248 283.3 350.365 283.3 352.976V390.715C283.3 393.326 285.374 395.444 287.932 395.444H344.043C346.601 395.444 348.675 393.326 348.675 390.715V352.976C348.675 350.365 346.601 348.248 344.043 348.248Z" stroke="#263238" stroke-linecap="round" stroke-linejoin="round"/>
<path d="M226.1 332.12C226.1 332.12 224.234 334.254 218.773 337.695C213.312 341.136 207.733 342.912 208.193 344.338C208.652 345.764 215.285 347.778 221.567 346.472C227.848 345.166 226.208 343.629 232.841 342.323V343.859C232.841 343.859 233.652 344.218 236.095 343.51C237.521 343.1 238.887 342.5 240.159 341.725V339.949C240.539 339.524 240.803 339.005 240.926 338.443C241.049 337.882 241.027 337.298 240.862 336.748C240.276 334.843 237.491 332 237.491 332L226.1 332.12Z" fill="#707070" stroke="#263238" stroke-linecap="round" stroke-linejoin="round"/>
<path d="M229.353 341.854C225.162 343.28 223.188 345.773 215.834 345.414C211.382 345.202 209.301 344.328 208.345 343.675C208.26 343.761 208.198 343.868 208.165 343.986C208.132 344.103 208.129 344.228 208.156 344.347C208.625 345.773 215.249 347.788 221.53 346.481C227.812 345.175 226.172 343.638 232.805 342.332V343.868C232.805 343.868 233.616 344.227 236.058 343.519C237.484 343.11 238.851 342.509 240.122 341.734V339.958L240.231 339.83C236.725 341.2 233.084 340.584 229.353 341.854Z" fill="#707070" stroke="#263238" stroke-linecap="round" stroke-linejoin="round"/>
<path d="M237.491 332.01L227.208 332.111L227.262 332.359C227.262 332.359 229.119 333.196 229.236 334.383C229.353 335.57 229.353 336.637 229.353 336.637C229.353 336.637 236.563 335.322 238.771 333.445C238.077 332.608 237.491 332.01 237.491 332.01Z" fill="white" stroke="#263238" stroke-linecap="round" stroke-linejoin="round"/>
<path d="M306.804 277.187C310.409 278.962 310.175 292.726 307.705 297.004C305.236 301.282 296.548 300.325 283.877 298.66C271.206 296.994 234.472 287.748 234.472 287.748L238.077 333.666C235.697 334.098 233.283 334.298 230.867 334.264C228.9 334.234 226.961 333.789 225.171 332.957C225.171 332.957 217.385 280.986 217.267 277.536C217.15 274.086 216.456 270.425 220.989 269.256C225.523 268.088 237.842 269.137 245.629 270.563C253.416 271.989 267.835 275.42 267.835 275.42L306.804 277.187Z" fill="#263238" stroke="#263238" stroke-linecap="round" stroke-linejoin="round"/>
<path d="M253.298 224.618C253.298 224.618 248.297 227.47 245.512 230.552C242.727 233.634 229.001 247.287 229.001 247.287C229.001 247.287 234.814 259.624 235.166 259.624C235.517 259.624 245.98 248.354 245.98 248.354C245.98 248.354 254.93 259.026 259.931 266.027C264.933 273.028 267.141 276.708 267.141 276.708C267.141 276.708 269.115 278.843 274 279.202C278.884 279.56 298.756 280.867 302.244 280.03C305.732 279.192 308.868 277.656 308.634 275.522C308.399 273.387 304.218 269.358 301.198 261.639C298.179 253.92 293.295 239.209 285.04 230.359C276.784 221.508 264.447 219.392 263.644 219.392C262.842 219.392 253.298 224.618 253.298 224.618Z" fill="white"/>
<path opacity="0.3" d="M301.189 261.639C298.161 253.929 293.286 239.209 285.031 230.359C276.775 221.508 264.447 219.392 263.644 219.392C262.996 219.392 256.813 222.714 254.326 224.057L258.39 230.672C258.39 230.672 265.276 230.414 268.232 231.168C271.188 231.923 277.091 235.437 277.83 239.209C278.569 242.981 285.454 269.569 285.454 269.569C285.454 269.569 285.067 275.632 286.635 279.928C293.304 280.26 300.297 280.453 302.235 279.993C305.723 279.165 308.859 277.619 308.625 275.485C308.39 273.35 304.209 269.358 301.189 261.639Z" fill="black"/>
<path opacity="0.3" d="M245.971 248.4C245.971 248.4 245.647 237.949 245.232 238.584C244.818 239.218 233.066 255.631 233.066 255.631L232.66 262.577L244.818 249.955" fill="black"/>
<path d="M253.298 224.618C253.298 224.618 248.297 227.47 245.512 230.552C242.727 233.634 229.001 247.287 229.001 247.287C229.001 247.287 234.814 259.624 235.166 259.624C235.517 259.624 245.98 248.354 245.98 248.354C245.98 248.354 254.93 259.026 259.931 266.027C264.933 273.028 267.141 276.708 267.141 276.708C267.141 276.708 269.115 278.843 274 279.202C278.884 279.56 298.756 280.867 302.244 280.03C305.732 279.192 308.868 277.656 308.634 275.522C308.399 273.387 304.218 269.358 301.198 261.639C298.179 253.92 293.295 239.209 285.04 230.359C276.784 221.508 264.447 219.392 263.644 219.392C262.842 219.392 253.298 224.618 253.298 224.618Z" stroke="#263238" stroke-linecap="round" stroke-linejoin="round"/>
<path d="M230.515 245.64C230.515 245.64 237.374 258.216 237.491 258.814C237.608 259.412 237.599 259.882 236.671 260.949C235.743 262.016 231.327 265.926 230.515 266.046C229.704 266.165 224.351 253.12 224.351 253.12C224.349 252.022 224.548 250.933 224.937 249.909C225.514 248.722 229.578 245.162 230.047 245.401L230.515 245.64Z" fill="white" stroke="#263238" stroke-linecap="round" stroke-linejoin="round"/>
<path d="M233.183 210.616C233.183 210.616 227.604 215.602 228.19 216.908C228.776 218.215 234.814 227.028 235.049 227.47C235.283 227.912 223.657 253.23 221.53 258.557C219.403 263.884 220.71 265.797 221.638 267.334C222.567 268.87 225.829 269.358 227.334 268.76C228.839 268.162 233.733 266.147 234.661 260.572C235.589 254.996 239.546 230.074 240.591 227.58C241.637 225.087 243.493 224.379 242.916 221.886C242.339 219.392 235.824 209.309 235.355 209.07C234.886 208.831 233.183 210.616 233.183 210.616Z" fill="white" stroke="#263238" stroke-linecap="round" stroke-linejoin="round"/>
<path d="M232.489 216.789C232.745 217.021 233.056 217.183 233.39 217.258C233.928 217.252 234.454 217.089 234.904 216.789" stroke="#263238" stroke-linecap="round" stroke-linejoin="round"/>
<path d="M236.211 220.23C236.211 220.23 239.582 223.312 239.23 224.83C238.9 225.853 238.192 226.704 237.257 227.203" stroke="#263238" stroke-linecap="round" stroke-linejoin="round"/>
<path d="M252.794 243.929L247.513 276.764L251.199 287.38L256.317 277.904L254.236 243.11L252.794 243.929Z" fill="#6C75C6" stroke="#263238" stroke-linecap="round" stroke-linejoin="round"/>
<path d="M250.234 235.759L252.794 243.929L253.596 244.26L257.832 234.582L253.749 231.684L250.234 235.759Z" fill="#6C75C6" stroke="#263238" stroke-linecap="round" stroke-linejoin="round"/>
<path d="M247.945 235.419L248.414 243.607L251.901 237.075L247.945 235.419Z" fill="white" stroke="#263238" stroke-linecap="round" stroke-linejoin="round"/>
<path d="M250.036 228.767L247.945 235.419L253.181 238.979L252.595 230.552L250.036 228.767Z" fill="white" stroke="#263238" stroke-linecap="round" stroke-linejoin="round"/>
<path d="M232.255 198.159C232.255 198.159 231.903 199.585 227.145 198.039C222.386 196.494 219.584 196.024 220.629 194C221.674 191.976 222.495 191.746 223.657 191.746C224.82 191.746 218.89 191.746 219.349 187.597C219.809 183.448 224.234 181.065 226.559 182.022C228.884 182.979 233.417 184.865 233.417 184.865C233.417 184.865 232.255 183.089 234.003 182.97C235.471 183.004 236.923 183.284 238.302 183.798C238.302 183.798 242.808 180.237 247.134 180.237C251.46 180.237 259.688 183.558 262.013 187.717C264.338 191.875 265.852 197.092 264.807 201.36C263.762 205.629 258.057 211.802 257.949 212.4C257.841 212.998 257.047 212.87 256.2 212.4C255.353 211.931 253.416 205.749 252.478 205.749C251.541 205.749 248.991 206.936 248.297 205.28C247.603 203.624 247.395 201.48 245.854 200.293C244.313 199.106 241.555 198.398 241.438 196.135C241.321 193.872 242.484 191.866 240.537 192.105C238.59 192.344 232.255 198.159 232.255 198.159Z" fill="#263238" stroke="#263238" stroke-linecap="round" stroke-linejoin="round"/>
<path d="M243.98 189.998C243.98 189.998 254.885 187.597 260.652 193.053" stroke="#616161" stroke-linecap="round" stroke-linejoin="round"/>
<path d="M258.408 197.266C258.819 197.581 259.211 197.922 259.58 198.288" stroke="#616161" stroke-linecap="round" stroke-linejoin="round"/>
<path d="M245.259 193.706C248.882 193.545 252.493 194.224 255.822 195.693" stroke="#616161" stroke-linecap="round" stroke-linejoin="round"/>
<path d="M240.159 189.732C240.159 189.732 231.209 194.598 230.975 196.172C230.838 199.14 230.877 202.114 231.092 205.077C231.209 206.623 232.841 208.398 232.841 209.226C232.841 210.054 233.066 213.615 234.003 215.519C234.94 217.424 240.51 224.894 241.673 225.133C242.835 225.372 246.783 223.229 246.783 223.229L253.181 239.016L262.013 219.08L256.2 208.159L253.632 201.839L250.027 204.093L249.207 200.293C249.207 200.293 243.394 196.972 243.277 195.785C243.16 194.598 244.178 192.105 243.745 191.277C243.313 190.449 240.159 189.732 240.159 189.732Z" fill="white"/>
<path opacity="0.3" d="M262.013 219.043L256.2 208.122L253.632 201.839L250.027 204.093L249.207 200.293C249.207 200.293 243.394 196.972 243.277 195.785C243.16 194.598 244.178 192.105 243.745 191.277C243.405 190.882 242.961 190.595 242.466 190.449C241.97 192.068 240.952 195.877 241.718 197.607C242.718 199.842 246.692 205.326 247.287 209.383C247.882 213.44 248.486 218.73 246.891 220.552C245.773 221.84 243.286 223.827 241.889 225.152C243.277 225.152 246.765 223.238 246.765 223.238L248.756 228.142C252.019 228.776 255.452 229.384 257.291 229.706L262.013 219.043Z" fill="black"/>
<path d="M240.159 189.732C240.159 189.732 231.209 194.598 230.975 196.172C230.838 199.14 230.877 202.114 231.092 205.077C231.209 206.623 232.841 208.398 232.841 209.226C232.841 210.054 233.066 213.615 234.003 215.519C234.94 217.424 240.51 224.894 241.673 225.133C242.835 225.372 246.783 223.229 246.783 223.229L253.181 239.016L262.013 219.08L256.2 208.159L253.632 201.839L250.027 204.093L249.207 200.293C249.207 200.293 243.394 196.972 243.277 195.785C243.16 194.598 244.178 192.105 243.745 191.277C243.313 190.449 240.159 189.732 240.159 189.732Z" stroke="#263238" stroke-linecap="round" stroke-linejoin="round"/>
<path d="M234.931 204.212L234.697 212.63L238.068 211.324" stroke="#263238" stroke-linecap="round" stroke-linejoin="round"/>
<path d="M238.068 214.654C238.807 214.438 239.492 214.061 240.074 213.548C240.656 213.034 241.121 212.398 241.438 211.683" stroke="#263238" stroke-linecap="round" stroke-linejoin="round"/>
<path d="M240.834 204.24C241.006 204.902 240.834 205.519 240.528 205.611C240.222 205.703 239.771 205.234 239.627 204.571C239.483 203.909 239.627 203.292 239.933 203.2C240.24 203.108 240.663 203.55 240.834 204.24Z" fill="#263238"/>
<path d="M234.706 206.595C234.877 207.258 234.706 207.874 234.4 207.966C234.093 208.058 233.643 207.589 233.498 206.926C233.354 206.264 233.498 205.648 233.805 205.556C234.111 205.464 234.499 205.924 234.706 206.595Z" fill="#263238"/>
<path d="M231.678 204.921C231.689 204.603 231.767 204.29 231.905 204.005C232.044 203.72 232.24 203.468 232.481 203.266C232.723 203.064 233.003 202.917 233.304 202.834C233.606 202.752 233.921 202.735 234.228 202.786" stroke="#263238" stroke-width="2" stroke-linecap="round" stroke-linejoin="round"/>
<path d="M236.788 201.241C236.973 200.741 237.286 200.301 237.695 199.967C238.105 199.633 238.594 199.419 239.113 199.346C239.588 199.176 240.092 199.11 240.593 199.151C241.095 199.192 241.582 199.34 242.024 199.585" stroke="#263238" stroke-width="2" stroke-linecap="round" stroke-linejoin="round"/>
<path d="M251.208 204.442C251.208 204.442 251.433 198.628 254.686 198.867C257.94 199.106 257.597 205.307 256.786 207.883C255.975 210.459 252.947 209.548 252.947 209.548" fill="white"/>
<path opacity="0.3" d="M251.208 204.442C251.208 204.442 251.433 198.628 254.686 198.867C257.94 199.106 257.597 205.307 256.786 207.883C255.975 210.459 252.947 209.548 252.947 209.548" fill="black"/>
<path d="M251.208 204.442C251.208 204.442 251.433 198.628 254.686 198.867C257.94 199.106 257.597 205.307 256.786 207.883C255.975 210.459 252.947 209.548 252.947 209.548" stroke="#263238" stroke-linecap="round" stroke-linejoin="round"/>
<path d="M253.181 233.873V238.979L257.832 234.582L253.181 233.873Z" fill="white" stroke="#263238" stroke-linecap="round" stroke-linejoin="round"/>
<path d="M253.181 233.873L258.309 242.521L265.384 218.325L262.482 215.832L253.181 233.873Z" fill="white" stroke="#263238" stroke-linecap="round" stroke-linejoin="round"/>
<path d="M270.845 235.06C270.845 235.06 268.295 238.62 268.295 241.114C268.295 243.607 278.289 272.32 278.289 272.32L293.862 274.574L286.653 238.924" fill="white"/>
<path opacity="0.3" d="M286.887 238.62L276.244 236.256C277.013 237.084 277.56 238.101 277.83 239.209C278.569 242.981 285.454 269.569 285.454 269.569C285.391 270.82 285.391 272.072 285.454 273.323L293.853 274.537L286.887 238.62Z" fill="black"/>
<path d="M270.845 235.06C270.845 235.06 268.295 238.62 268.295 241.114C268.295 243.607 278.289 272.32 278.289 272.32L293.862 274.574L286.653 238.924" stroke="#263238" stroke-linecap="round" stroke-linejoin="round"/>
<path d="M277.469 272.32C277.469 272.32 245.971 288.457 245.395 290.002C244.818 291.548 241.438 304.354 240.889 305.642C240.339 306.93 244.376 309.442 244.836 310.15C245.295 310.859 247.161 310.15 247.161 310.15C247.949 310.013 248.726 309.816 249.486 309.562C249.955 309.322 250.387 309.322 250.766 308.853C251.32 308.366 251.758 307.755 252.046 307.068C252.505 305.882 252.947 305.882 252.28 305.173C251.613 304.465 251.117 304.575 251 304.934C250.905 305.174 250.742 305.379 250.532 305.523L250.027 304.52C250.705 303.975 251.247 303.274 251.61 302.475C251.974 301.676 252.147 300.8 252.118 299.92C252.118 296.718 251.532 291.263 251.532 291.263C251.532 291.263 290.474 282.357 292.213 281.649C293.953 280.94 294.538 279.873 293.844 278.797C293.151 277.72 277.469 272.32 277.469 272.32Z" fill="white" stroke="#263238" stroke-linecap="round" stroke-linejoin="round"/>
<path d="M242.952 306.498L244.809 310.169" stroke="#263238" stroke-linecap="round" stroke-linejoin="round"/>
<path d="M244.926 305.78L247.134 310.169" stroke="#263238" stroke-linecap="round" stroke-linejoin="round"/>
<path d="M247.72 305.311L250.045 309.102" stroke="#263238" stroke-linecap="round" stroke-linejoin="round"/>
<path d="M275.73 269.118C275.613 269.634 276.775 273.866 276.775 273.866C276.775 273.866 294.556 281.336 295.025 280.747C295.412 280.274 295.653 279.695 295.719 279.082C295.719 278.723 295.259 269.588 295.142 268.171C295.025 266.754 294.556 266.506 293.98 266.625C293.403 266.745 277.938 268.281 277.244 268.401C276.55 268.52 275.964 268.051 275.73 269.118Z" fill="white"/>
<path opacity="0.3" d="M278.983 274.786C283.76 276.764 294.665 281.226 295.025 280.747C295.412 280.274 295.653 279.695 295.719 279.082C295.719 278.723 295.259 269.588 295.142 268.171C295.025 266.754 294.556 266.506 293.98 266.625C293.709 266.68 290.158 267.048 286.4 267.435V267.582C286.4 267.582 290.131 268.502 290.564 270.038C290.997 271.575 288.158 274.74 287.716 275.862C287.392 276.607 282.327 275.558 278.983 274.786Z" fill="black"/>
<path d="M275.73 269.118C275.613 269.634 276.775 273.866 276.775 273.866C276.775 273.866 294.556 281.336 295.025 280.747C295.412 280.274 295.653 279.695 295.719 279.082C295.719 278.723 295.259 269.588 295.142 268.171C295.025 266.754 294.556 266.506 293.98 266.625C293.403 266.745 277.938 268.281 277.244 268.401C276.55 268.52 275.964 268.051 275.73 269.118Z" stroke="#263238" stroke-linecap="round" stroke-linejoin="round"/>
<path d="M253.298 356.454C249.293 359.253 245.141 361.827 240.861 364.164C232.606 368.764 226.911 369.858 226.911 371.643C226.911 373.428 230.515 375.434 235.166 375.792C239.816 376.151 245.395 376.271 248.684 374.127C251.974 371.984 253.56 371.754 253.56 371.754L253.452 372.94C254.595 373.047 255.748 372.887 256.822 372.471C258.36 371.976 259.865 371.38 261.328 370.686L261.554 368.552C262.034 368.283 262.431 367.882 262.699 367.394C262.967 366.906 263.094 366.351 263.068 365.792C263.185 363.648 261.905 357.365 261.905 357.365L253.298 356.454Z" fill="#707070" stroke="#263238" stroke-linecap="round" stroke-linejoin="round"/>
<path d="M261.319 370.686L261.545 368.552C261.733 368.46 261.906 368.339 262.058 368.193C260.001 368.539 257.966 369.015 255.966 369.619C253.524 370.456 251.09 370.456 247.485 372.71C243.881 374.964 239.374 375.553 234.12 374.725C232.79 374.579 231.503 374.155 230.339 373.481C229.175 372.807 228.158 371.897 227.352 370.806C227.224 370.905 227.119 371.031 227.043 371.176C226.966 371.32 226.921 371.48 226.911 371.643C226.911 373.419 230.515 375.434 235.166 375.792C239.816 376.151 245.395 376.271 248.684 374.127C251.974 371.984 253.56 371.754 253.56 371.754L253.452 372.94C254.595 373.047 255.748 372.887 256.822 372.471C258.357 371.976 259.859 371.379 261.319 370.686Z" fill="#707070" stroke="#263238" stroke-linecap="round" stroke-linejoin="round"/>
<path d="M262.725 362.112C262.383 359.784 261.896 357.402 261.896 357.402L253.298 356.482C253.298 356.482 252.794 356.85 251.82 357.503L252.019 357.779C252.019 357.779 252.92 357.31 253.875 359.324C254.455 360.875 254.695 362.536 254.578 364.191C254.578 364.191 260.049 363.906 262.725 362.112Z" fill="white" stroke="#263238" stroke-linecap="round" stroke-linejoin="round"/>
<path d="M298.278 281.814C298.278 281.814 273.224 277.132 268.538 278.788C263.852 280.444 262.617 287.454 262.383 290.186C262.148 292.919 259.769 329.746 256.75 341.026C253.731 352.305 251.983 357.751 251.983 357.751C251.983 357.751 252.217 359.536 255.813 361.082C257.655 361.938 259.616 362.496 261.626 362.738C261.626 362.738 275.577 330.823 278.488 323.104C281.399 315.385 281.317 298.825 281.317 298.825C281.317 298.825 299.594 304.52 305.84 298.08C309.3 294.483 308.742 286.212 307.345 284.28L305.948 282.44" fill="#263238"/>
<path d="M298.278 281.814C298.278 281.814 273.224 277.132 268.538 278.788C263.852 280.444 262.617 287.454 262.383 290.186C262.148 292.919 259.769 329.746 256.75 341.026C253.731 352.305 251.983 357.751 251.983 357.751C251.983 357.751 252.217 359.536 255.813 361.082C257.655 361.938 259.616 362.496 261.626 362.738C261.626 362.738 275.577 330.823 278.488 323.104C281.399 315.385 281.317 298.825 281.317 298.825C281.317 298.825 299.594 304.52 305.84 298.08C309.3 294.483 308.742 286.212 307.345 284.28L305.948 282.44" stroke="#263238" stroke-linecap="round" stroke-linejoin="round"/>
<path d="M126.379 308.66H80.1281V389.086H126.379V308.66Z" fill="#263238"/>
<path opacity="0.03" d="M126.379 308.66H80.1281V389.086H126.379V308.66Z" fill="white"/>
<path d="M126.379 308.66H80.1281V389.086H126.379V308.66Z" stroke="#263238" stroke-linecap="round" stroke-linejoin="round"/>
<path d="M126.379 308.66L142.511 266.11H120.197L80.1281 308.66H126.379Z" fill="#263238"/>
<path opacity="0.25" d="M126.379 308.66L142.511 266.11H120.197L80.1281 308.66H126.379Z" fill="white"/>
<path opacity="0.34" d="M138.753 266.11H120.197L80.1281 308.66H108.967L104.2 297.556L125.532 270.6L138.753 266.11Z" fill="black"/>
<path d="M126.379 308.66L142.511 266.11H120.197L80.1281 308.66H126.379Z" stroke="#263238" stroke-linecap="round" stroke-linejoin="round"/>
<path d="M142.511 266.11V298.779L126.379 389.086V308.66L142.511 266.11Z" fill="#263238" stroke="#263238" stroke-linecap="round" stroke-linejoin="round"/>
<path d="M110.869 290.913L102.343 294.317L104.741 292.137L113.266 288.88L110.869 290.913Z" fill="#263238" stroke="#263238" stroke-linecap="round" stroke-linejoin="round"/>
<path d="M113.266 288.88L121.783 292.551L120.449 294.455L110.869 290.913L113.266 288.88Z" fill="#263238" stroke="#263238" stroke-linecap="round" stroke-linejoin="round"/>
<path d="M133.237 271.345L128.839 270.121L127.505 271.207L132.57 272.154L133.237 271.345Z" fill="#263238" stroke="#263238" stroke-linecap="round" stroke-linejoin="round"/>
<path d="M109.914 200.937V294.29L130.074 269.293V219.549L109.914 200.937Z" fill="#263238" stroke="#263238" stroke-linecap="round" stroke-linejoin="round"/>
<path d="M111.401 203.964V289.404L129.551 266.91V221.085L111.401 203.964Z" fill="#6C75C6" stroke="#263238" stroke-linecap="round" stroke-linejoin="round"/>
<path d="M109.796 200.79H105.669V294.179H109.796V200.79Z" fill="#263238" stroke="#263238" stroke-linecap="round" stroke-linejoin="round"/>
</svg>
